<?xml version="1.0" standalone="no"?>
<!DOCTYPE svg PUBLIC "-//W3C//DTD SVG 20010904//EN"
 "http://www.w3.org/TR/2001/REC-SVG-20010904/DTD/svg10.dtd">
<svg version="1.0" xmlns="http://www.w3.org/2000/svg"
 width="1288.000000pt" height="1288.000000pt" viewBox="0 0 1288.000000 1288.000000"
 preserveAspectRatio="xMidYMid meet">
<metadata>
Created by potrace 1.11, written by Peter Selinger 2001-2013
</metadata>
<g transform="translate(0.000000,1288.000000) scale(0.100000,-0.100000)"
fill="#000000" stroke="none">
<path d="M242 10543 c30 -29 44 -27 33 6 -4 14 -15 21 -33 21 l-27 0 27 -27z"/>
<path d="M380 10563 c0 -3 7 -14 15 -23 27 -30 95 -202 95 -241 0 -29 -4 -38
-20 -42 -14 -4 -25 1 -33 14 -18 28 -28 23 -75 -36 -36 -46 -51 -57 -98 -71
-42 -12 -58 -13 -69 -4 -21 17 -35 3 -35 -36 0 -25 4 -34 18 -35 9 0 30 -16
46 -35 25 -30 27 -38 18 -59 -7 -14 -20 -25 -31 -25 -11 0 -33 -16 -48 -35
-20 -26 -33 -33 -49 -29 -25 6 -43 -24 -22 -38 12 -8 2 -7 -67 7 l-25 5 0
-205 c0 -195 1 -205 19 -205 12 0 25 12 33 30 11 25 18 30 50 30 28 0 42 -6
57 -26 27 -34 26 -45 -5 -67 -24 -18 -25 -18 -58 2 -41 26 -42 26 -49 0 -3
-11 -15 -23 -26 -26 l-21 -5 0 -1397 0 -1396 28 -12 c21 -10 35 -10 65 1 21 7
43 18 49 24 15 15 45 16 53 2 11 -17 72 -11 111 12 34 20 39 21 64 6 23 -13
35 -14 76 -3 31 8 50 18 52 29 5 23 19 20 63 -15 21 -17 39 -27 39 -22 0 4 5
1 10 -7 15 -24 12 -60 -6 -60 -21 0 -57 20 -67 36 -11 19 -36 18 -83 -3 -22
-9 -55 -17 -75 -18 -44 -2 -59 -11 -59 -36 0 -14 -7 -19 -27 -19 -51 0 -73
-11 -73 -34 0 -33 -7 -35 -50 -14 -26 13 -40 27 -40 39 0 15 -7 19 -38 19 -21
0 -43 5 -50 12 -8 8 -15 8 -27 -2 -13 -11 -15 -85 -15 -620 l0 -608 44 5 c41
5 49 2 103 -40 99 -79 111 -87 121 -87 6 0 0 22 -13 48 -20 41 -22 59 -18 110
3 34 10 62 14 62 5 0 9 -4 9 -10 0 -5 16 -16 35 -24 20 -9 44 -30 56 -50 18
-32 23 -34 57 -29 50 8 105 41 98 60 -3 8 -6 22 -6 32 0 9 -20 41 -45 70 -54
64 -62 90 -41 135 9 19 16 46 16 60 0 17 11 37 27 52 22 21 29 37 33 82 4 49
8 57 25 57 17 0 20 -8 23 -50 4 -76 21 -152 38 -165 7 -7 14 -21 14 -31 0 -11
11 -24 24 -31 14 -6 27 -17 30 -25 6 -16 -30 -56 -44 -48 -5 3 -11 -21 -15
-52 -3 -32 -9 -79 -14 -104 -9 -57 -2 -79 35 -99 41 -23 58 -58 50 -103 -6
-31 -12 -39 -37 -44 -39 -7 -44 -17 -44 -85 0 -62 0 -63 -32 -72 -17 -5 -23
-3 -23 8 0 20 -16 29 -40 21 -16 -5 -20 -15 -20 -46 0 -21 -4 -39 -9 -39 -5 0
-11 -10 -13 -22 -2 -12 -15 -29 -30 -37 -25 -15 -28 -14 -88 42 -33 31 -65 57
-69 57 -5 0 -12 -10 -15 -23 -6 -19 -13 -10 -45 56 -21 43 -47 88 -58 100 -10
12 -24 34 -31 49 -6 15 -23 34 -37 44 -14 9 -25 24 -25 34 0 10 -9 28 -20 41
l-19 24 -1 -195 c0 -185 1 -196 20 -208 26 -16 26 -38 0 -54 -20 -13 -20 -23
-20 -513 l1 -500 24 28 c13 15 30 27 38 27 8 0 21 10 30 22 12 19 17 21 28 10
8 -7 14 -18 14 -25 1 -7 9 -30 19 -52 10 -22 21 -69 24 -105 2 -36 12 -78 20
-95 10 -19 15 -52 13 -92 -1 -34 5 -90 13 -125 8 -35 18 -106 22 -158 4 -52
13 -112 20 -133 24 -68 -10 -97 -111 -97 -30 0 -77 -5 -105 -11 l-50 -11 0
-329 0 -329 779 0 c509 0 782 3 786 10 9 14 72 12 78 -2 4 -10 8 -10 14 -2 4
7 17 13 27 15 22 5 30 18 45 79 31 123 36 140 43 140 3 0 5 -54 4 -120 l-2
-120 847 0 848 0 15 22 c9 12 16 34 16 49 0 14 11 39 24 54 13 16 27 44 31 63
4 20 21 49 43 71 l37 38 120 7 c66 4 246 11 400 15 267 7 282 8 325 31 25 13
60 37 78 54 l32 30 0 123 c0 116 -1 123 -20 123 -18 0 -20 7 -20 66 0 57 3 67
20 71 14 4 21 17 26 50 7 46 -1 67 -16 44 -6 -11 -14 -10 -39 8 -27 20 -40 22
-89 17 -160 -17 -213 -18 -227 -6 -20 17 -19 52 3 81 11 13 22 41 25 63 3 21
27 78 52 126 38 74 46 99 48 152 l2 63 -40 3 c-48 4 -75 30 -75 72 0 23 -4 30
-20 30 -11 0 -20 4 -20 9 0 5 12 8 27 7 20 -2 29 -10 33 -27 4 -15 14 -25 29
-27 21 -3 23 0 19 22 -3 15 -1 29 3 32 5 3 9 26 9 51 0 34 -3 44 -13 40 -8 -3
-20 -2 -27 3 -9 6 -6 10 11 15 13 4 36 16 51 26 14 11 36 19 47 19 28 0 41 35
41 110 0 32 4 62 10 65 17 10 12 136 -5 155 -28 31 -30 84 -5 134 13 28 25 79
30 128 6 58 16 98 34 132 14 27 26 63 26 80 0 37 33 165 57 218 13 30 15 60
10 160 -6 139 -21 188 -74 246 -23 25 -32 43 -29 57 3 11 6 26 6 32 0 7 5 12
11 10 15 -3 31 51 24 82 -4 13 1 34 10 48 10 14 15 36 12 50 -2 13 8 55 24 95
16 38 29 83 29 98 0 16 4 32 10 35 6 3 10 17 10 29 0 13 7 37 15 52 8 16 15
39 15 52 0 12 6 22 13 22 10 0 16 55 26 237 8 161 16 240 24 245 19 12 53 9
64 -4 14 -18 23 -124 12 -135 -15 -15 -39 -111 -45 -183 -3 -38 -12 -70 -20
-76 -8 -6 -14 -25 -14 -43 0 -19 -6 -34 -15 -37 -8 -4 -15 -19 -15 -34 0 -16
-4 -32 -10 -35 -5 -3 -10 -19 -10 -36 0 -16 -10 -62 -22 -102 -32 -108 -38
-231 -13 -303 8 -25 15 -55 15 -69 0 -13 5 -36 12 -52 15 -37 20 -295 7 -358
-6 -27 -17 -75 -25 -106 -8 -30 -14 -68 -14 -83 0 -15 -8 -41 -17 -59 -9 -18
-17 -50 -18 -72 -1 -22 -12 -88 -25 -148 -24 -105 -24 -108 -7 -155 21 -54 26
-136 31 -510 4 -250 3 -264 -15 -275 -15 -9 -19 -24 -19 -68 0 -157 29 -240
40 -113 l5 59 58 3 c42 2 64 9 78 23 21 21 44 16 35 -8 -5 -12 7 -13 84 -7 87
6 90 6 90 -14 0 -12 -4 -24 -10 -27 -6 -3 -10 -23 -10 -43 -1 -41 -28 -82 -55
-82 -11 0 -15 -7 -13 -22 4 -32 58 -39 58 -9 0 12 6 21 14 21 23 0 28 -17 11
-33 -8 -9 -15 -25 -15 -36 0 -17 5 -20 29 -15 16 4 32 1 35 -5 11 -16 82 -13
96 4 7 8 18 15 25 15 6 0 20 9 30 20 18 20 18 21 -10 50 l-29 30 32 6 c33 7
36 11 26 38 -4 10 -18 16 -39 16 -19 0 -50 10 -71 22 l-37 22 7 98 c5 90 8
101 32 123 15 14 22 25 15 25 -6 0 -11 9 -11 20 0 11 3 20 8 20 4 0 12 11 19
25 6 14 8 23 4 21 -4 -3 -13 4 -20 16 -9 15 -9 18 0 13 7 -5 10 -3 7 6 -3 8
-11 14 -19 15 -8 0 -19 2 -25 2 -6 1 -14 29 -17 62 -3 39 -12 69 -26 86 -19
24 -21 40 -21 143 1 64 5 147 10 185 6 46 5 77 -2 95 -7 16 -12 140 -14 336
-2 302 7 457 26 463 6 2 10 44 10 93 0 58 -4 88 -10 84 -13 -8 -13 1 0 25 7
13 6 19 -5 24 -12 4 -15 25 -15 92 0 69 -4 92 -17 106 -14 16 -18 42 -19 148
-1 89 -5 134 -14 145 -9 11 -11 41 -8 109 5 88 4 95 -14 100 -28 7 -13 24 27
32 20 3 38 10 41 15 3 5 22 9 42 9 76 0 149 -93 138 -175 -7 -50 0 -59 44 -62
46 -3 72 -34 68 -82 -3 -33 -6 -36 -39 -39 -22 -2 -47 -14 -67 -32 l-32 -28
15 -49 c8 -26 15 -63 15 -80 0 -18 4 -52 10 -75 5 -24 12 -55 15 -70 4 -19 17
-34 43 -47 42 -21 62 -65 62 -134 0 -20 9 -52 21 -72 12 -19 19 -41 16 -49 -3
-7 -26 -18 -51 -25 -63 -15 -75 -46 -40 -105 9 -16 14 -16 32 -5 16 10 26 10
46 1 22 -10 26 -18 26 -55 0 -24 -5 -48 -12 -55 -8 -8 -14 -84 -19 -240 -8
-233 -21 -376 -39 -397 -5 -6 -17 -43 -26 -81 -17 -72 -14 -215 5 -238 13 -16
33 -220 35 -354 1 -92 -7 -81 90 -128 50 -24 66 -40 66 -66 0 -23 34 -71 44
-61 3 3 6 -1 6 -10 0 -8 -9 -19 -20 -22 -11 -3 -20 -10 -20 -15 0 -5 -14 -8
-32 -7 -24 1 -36 10 -51 35 -10 17 -25 32 -33 32 -8 0 -17 7 -20 15 -8 21 -34
19 -34 -3 0 -10 -8 -29 -17 -42 -16 -23 -18 -56 -17 -365 1 -260 5 -349 15
-380 l14 -40 200 -5 c119 -3 210 -10 226 -17 27 -12 31 -7 28 35 0 9 -3 73 -5
142 -4 82 -10 130 -18 140 -7 8 -16 34 -20 58 -3 24 -11 51 -16 60 -5 9 -19
62 -32 117 l-23 100 -64 0 c-61 0 -65 1 -72 27 -8 29 8 109 24 119 6 4 3 37
-8 85 -10 44 -20 97 -22 119 -3 21 -21 61 -39 88 -52 75 -54 95 -14 127 33 27
34 29 22 67 -19 63 -14 124 14 194 14 35 30 68 35 74 12 12 11 43 -2 47 -6 2
-10 63 -10 174 l0 171 32 52 c18 28 36 51 40 51 21 0 34 -52 36 -140 7 -346 9
-373 37 -420 28 -49 35 -133 17 -198 -8 -25 -5 -42 11 -79 20 -45 20 -47 2
-102 -10 -31 -24 -63 -31 -72 -7 -8 -13 -26 -13 -38 0 -12 -4 -30 -10 -40 -13
-26 9 -79 34 -83 21 -3 28 -32 55 -208 14 -89 56 -204 76 -208 16 -4 17 3 10
70 -9 78 -8 468 0 505 4 15 -1 23 -13 28 -17 5 -19 18 -20 119 -1 62 -6 133
-11 157 -15 65 -16 300 -2 326 6 12 7 24 2 27 -5 3 -11 16 -14 28 -2 13 -8 31
-12 41 -4 10 -3 17 4 17 6 0 16 -21 22 -46 6 -25 24 -57 39 -73 26 -25 28 -34
35 -148 l7 -122 34 17 c36 17 54 56 54 120 0 52 31 38 50 -23 9 -28 22 -63 30
-80 7 -16 16 -68 20 -115 4 -47 14 -100 22 -119 14 -32 14 -37 -2 -65 -10 -20
-15 -44 -12 -67 2 -20 -1 -39 -6 -43 -7 -4 -7 -18 -1 -41 6 -19 9 -72 8 -117
-1 -46 1 -95 5 -110 7 -23 3 -33 -22 -58 -17 -17 -44 -33 -61 -36 -37 -8 -38
-16 -10 -60 18 -30 20 -47 17 -176 -1 -79 1 -192 6 -253 7 -92 12 -117 33
-149 25 -38 25 -41 18 -180 -3 -77 -9 -149 -11 -158 -5 -16 4 -18 85 -18 l91
0 0 28 c1 68 19 319 24 332 5 13 56 15 371 15 l364 0 28 -27 c20 -20 29 -42
34 -80 3 -29 12 -101 20 -160 l13 -108 34 0 c29 0 33 3 27 18 -8 17 -10 31
-38 242 -9 63 -23 138 -31 165 -9 28 -16 64 -16 81 0 16 -7 39 -15 50 -8 10
-15 36 -15 56 0 20 -9 52 -19 70 -13 22 -22 68 -29 138 -8 81 -17 120 -41 173
-22 49 -31 84 -31 121 0 42 -6 62 -30 97 -16 24 -33 60 -36 79 -4 19 -13 44
-20 55 -7 11 -16 47 -19 80 -4 33 -14 67 -21 76 -8 9 -15 43 -17 80 -2 49 -8
72 -25 93 -19 25 -22 41 -22 115 0 73 -4 92 -25 130 -15 25 -25 59 -25 82 0
63 -20 143 -41 161 -40 34 -60 106 -58 201 2 48 6 90 10 92 3 3 28 -15 54 -40
26 -24 54 -46 61 -49 20 -8 17 -23 -6 -29 -18 -5 -20 -14 -20 -91 0 -54 4 -86
11 -86 13 0 86 -156 91 -194 5 -51 40 -66 157 -70 131 -5 141 -12 122 -88 -19
-77 -24 -158 -13 -182 19 -39 21 -70 10 -142 -8 -54 -8 -89 0 -141 7 -37 17
-171 23 -298 6 -142 16 -247 25 -274 8 -25 14 -82 14 -128 0 -47 5 -94 12
-106 6 -12 15 -67 19 -122 14 -179 37 -394 44 -405 4 -6 124 -10 351 -10 385
0 347 -8 345 75 -1 32 6 48 34 80 43 50 61 40 46 -26 -6 -24 -11 -63 -11 -86
l0 -43 670 0 669 0 -23 48 c-73 154 -116 256 -116 278 0 13 -67 173 -78 187
-6 7 -24 53 -41 103 -18 50 -41 109 -51 130 -11 21 -20 49 -20 61 0 13 -7 34
-14 46 -8 12 -22 47 -30 77 -8 30 -25 75 -38 100 -13 25 -25 59 -27 75 -3 31
-36 137 -52 166 -4 9 -20 61 -34 115 -15 54 -33 110 -40 124 -7 14 -15 43 -18
65 -5 40 -18 81 -44 142 -19 45 -16 62 13 75 32 15 54 2 67 -38 5 -16 16 -36
24 -45 9 -11 14 -37 13 -70 -2 -81 8 -144 41 -254 40 -133 48 -153 65 -159 8
-3 14 -20 14 -41 0 -19 9 -52 20 -72 11 -21 20 -45 20 -55 0 -9 4 -19 10 -23
5 -3 19 -37 31 -75 13 -39 29 -70 36 -70 8 0 13 -12 13 -29 0 -17 5 -33 10
-36 15 -9 25 24 11 38 -6 6 -11 23 -11 38 0 32 -17 81 -31 90 -6 3 -12 35 -13
70 -5 92 -24 211 -36 223 -5 5 -10 29 -10 52 0 23 -7 61 -16 85 -9 24 -20 78
-25 119 -11 107 -19 143 -37 162 -28 32 1 147 34 134 6 -2 33 2 60 10 26 8 64
14 84 14 21 0 43 7 50 15 6 8 22 17 33 21 12 3 29 13 38 20 10 9 27 12 47 8
35 -7 36 -10 32 -105 -2 -57 5 -70 54 -94 14 -7 22 -22 24 -44 5 -45 -25 -111
-50 -111 -23 0 -25 -45 -2 -54 13 -5 14 -9 4 -20 -17 -21 -12 -176 7 -198 11
-12 13 -28 9 -55 -11 -70 -14 -126 -17 -433 -3 -336 4 -491 28 -590 8 -36 15
-100 16 -142 l0 -78 320 0 319 0 -4 56 c-4 46 -2 57 14 65 10 5 18 6 18 2 0
-4 5 -1 10 7 5 8 10 38 10 67 0 28 5 55 11 59 6 4 8 16 3 33 -4 14 -10 51 -13
81 -5 50 -8 55 -28 52 -37 -5 -27 25 14 45 44 20 53 30 53 61 0 13 7 30 15 39
8 8 13 19 9 24 -3 5 -12 2 -20 -6 -9 -8 -20 -15 -25 -15 -15 0 -10 112 8 162
13 38 21 47 47 52 22 5 34 2 42 -9 10 -13 14 -12 28 9 9 14 16 44 16 67 0 32
4 42 19 46 13 3 21 17 26 41 4 21 13 51 21 67 17 37 44 128 51 175 3 19 9 40
13 45 20 27 39 100 60 233 6 35 17 73 25 85 8 12 15 34 15 49 0 15 5 30 10 33
6 4 7 23 4 46 -5 32 -4 39 10 39 11 0 16 9 16 28 0 15 4 32 9 37 4 6 14 38 20
73 13 67 4 97 -25 85 -8 -3 -14 1 -14 10 0 10 11 17 28 19 27 3 27 4 30 88 2
59 8 90 18 102 13 13 15 36 12 112 -1 53 0 96 3 96 3 0 15 9 27 20 16 15 22
33 22 60 0 29 9 52 30 82 17 22 30 47 30 54 0 7 11 21 24 32 14 10 28 31 31
45 4 14 13 31 21 38 8 6 14 17 14 24 0 8 16 19 35 25 19 6 35 15 35 19 0 3 13
12 30 18 21 8 30 8 34 -1 2 -6 5 -1 5 11 1 11 17 40 36 63 19 23 35 48 35 56
0 7 9 18 20 24 27 14 53 67 47 96 -3 19 0 24 17 24 14 0 22 7 23 18 6 77 11
110 21 129 7 12 12 40 12 62 0 32 7 47 31 72 28 29 30 36 25 73 -4 23 -11 45
-16 50 -13 13 -47 -48 -53 -98 -5 -33 -17 -54 -52 -92 -25 -27 -55 -69 -67
-94 -11 -25 -32 -60 -46 -79 -14 -19 -31 -50 -38 -70 -20 -60 -83 -53 -67 7 3
13 15 22 32 24 23 3 26 7 23 38 -1 19 -13 57 -26 85 -31 66 -47 245 -22 245
33 0 14 19 -21 22 l-37 3 3 133 c2 118 1 136 -17 167 -18 29 -19 39 -9 64 9
25 8 33 -7 50 -18 20 -18 21 4 58 l22 37 -23 19 c-15 12 -23 30 -24 49 0 29
-3 31 -40 35 -22 2 -50 13 -62 25 l-22 20 -24 -25 c-13 -15 -35 -31 -50 -36
-17 -7 -33 -26 -47 -55 -11 -25 -24 -48 -30 -51 -5 -3 -10 -17 -10 -31 0 -14
-4 -33 -9 -43 -18 -33 8 -160 45 -222 19 -31 34 -60 34 -64 0 -3 16 -33 35
-66 25 -43 33 -67 29 -87 -3 -17 3 -42 16 -67 24 -48 24 -54 2 -83 l-18 -24
-42 22 c-52 27 -83 21 -111 -22 -40 -63 -70 -90 -91 -83 -13 4 -20 2 -18 -5 2
-7 -3 -15 -9 -17 -8 -3 -13 4 -13 19 -1 22 -1 22 -12 3 -6 -11 -17 -24 -25
-28 -7 -4 -13 -17 -13 -27 0 -11 -5 -20 -11 -20 -7 0 -36 -20 -65 -45 -28 -25
-60 -45 -71 -45 -28 0 -103 43 -103 60 -1 26 -33 58 -80 79 l-45 19 -91 -91
c-50 -51 -100 -99 -110 -108 -10 -9 -35 -35 -54 -58 -19 -23 -45 -53 -58 -67
-12 -14 -22 -29 -22 -35 0 -5 -32 -42 -71 -81 -51 -51 -74 -67 -82 -59 -13 13
8 82 35 113 24 28 16 113 -19 189 -35 77 -28 102 38 130 27 12 56 31 64 41 13
20 14 19 36 -6 22 -25 48 -33 62 -19 9 9 -24 32 -47 33 -15 0 -17 5 -12 31 3
18 13 37 20 43 8 6 18 27 21 48 6 31 4 37 -15 43 -20 6 -22 12 -16 55 5 38 0
66 -25 141 -17 52 -37 104 -45 116 -18 29 -18 63 1 90 10 15 30 23 72 28 32 4
61 12 65 18 4 7 16 6 36 -2 31 -13 57 -7 47 9 -9 14 14 22 41 16 21 -6 23 -10
14 -21 -14 -17 15 -35 59 -35 17 0 31 -4 31 -9 0 -5 14 -14 32 -20 26 -9 35
-8 47 4 24 23 4 46 -65 73 -32 13 -66 30 -75 38 -8 8 -23 14 -32 14 -17 0 -24
34 -9 44 4 2 55 -2 112 -11 139 -21 161 -22 185 -8 11 7 31 15 45 18 27 7 43
38 56 110 4 22 12 37 21 37 27 0 94 -41 102 -62 7 -18 9 -15 14 19 9 53 -7
100 -28 83 -21 -17 -51 3 -65 44 -8 26 -20 38 -51 50 -47 19 -47 40 -1 44 24
2 32 8 32 23 0 14 -7 19 -26 19 -29 0 -63 35 -63 65 -1 11 13 40 29 64 17 24
30 50 30 58 0 18 -33 30 -38 15 -2 -7 -10 -12 -18 -12 -12 0 -14 14 -12 72 3
70 4 73 33 87 17 8 32 17 35 21 3 4 21 17 40 29 41 25 80 28 80 6 0 -8 5 -15
11 -15 7 0 9 11 5 31 -4 23 -1 35 18 54 33 33 40 55 16 55 -10 0 -22 -4 -25
-10 -13 -21 -25 -9 -25 24 0 19 -4 38 -10 41 -17 10 -11 25 9 25 11 0 31 -14
44 -30 28 -33 29 -32 46 23 7 20 17 37 22 37 19 0 107 100 112 129 5 24 12 31
29 31 39 0 68 12 68 26 0 21 46 35 91 28 25 -4 49 -2 63 5 12 7 38 11 57 9 29
-2 34 -7 37 -31 2 -15 12 -31 22 -37 10 -5 24 -26 30 -45 14 -43 35 -45 58 -5
15 27 60 50 98 50 6 0 19 9 29 20 20 23 83 27 114 9 14 -10 24 -7 49 11 18 13
32 28 32 32 0 14 -33 23 -38 10 -5 -16 -32 -15 -32 1 0 19 -33 47 -56 47 -10
0 -36 5 -56 10 -37 11 -37 11 -17 31 11 11 33 22 50 26 22 4 35 16 49 44 11
21 20 45 20 54 0 22 21 18 53 -10 33 -29 34 -35 4 -35 -23 0 -52 -34 -42 -50
9 -15 20 -12 49 15 15 14 35 25 44 25 10 0 23 9 30 20 11 19 10 21 -18 26 -16
4 -35 13 -41 20 -6 8 -20 14 -31 14 -13 0 -18 6 -16 18 3 14 12 16 49 14 43
-3 45 -2 44 25 0 23 5 29 28 31 22 3 27 -1 27 -17 0 -12 5 -21 10 -21 12 0 13
22 2 35 -5 6 -14 29 -21 53 -11 38 -15 42 -44 42 -36 0 -77 24 -77 44 0 7 20
19 45 26 38 11 43 15 35 30 -18 34 -43 33 -71 -1 l-26 -32 -23 31 c-13 18 -30
32 -37 32 -7 0 -13 7 -13 15 0 17 16 20 25 5 11 -18 54 -10 81 15 15 14 38 25
50 25 49 0 75 53 58 118 -9 31 -54 31 -54 0 0 -28 -39 -108 -56 -115 -18 -7
-54 15 -54 32 0 8 4 15 8 15 17 0 88 76 85 91 -2 9 -21 26 -42 37 -21 12 -46
33 -55 47 -9 13 -30 32 -47 41 -31 15 -31 17 -25 69 6 52 6 53 -24 58 -31 7
-37 20 -56 132 -7 40 -14 52 -37 63 -22 11 -26 18 -21 35 9 30 45 75 67 82 16
6 23 35 17 75 -3 23 -41 61 -77 76 -24 10 -30 18 -26 34 4 16 14 20 47 20 22
1 66 7 96 14 44 10 59 19 78 47 15 21 32 34 45 34 21 0 22 4 20 88 -1 106 -7
130 -34 156 -20 18 -21 28 -17 105 3 59 9 91 20 103 36 40 23 83 -41 139 -43
39 -48 41 -71 29 -24 -12 -120 -126 -120 -143 0 -4 -41 -8 -91 -9 -92 -1 -159
-21 -159 -46 0 -16 189 -60 214 -51 9 3 16 17 16 31 0 19 9 28 43 43 23 11 50
20 60 20 16 0 21 10 18 36 -2 17 46 26 69 14 23 -12 24 -21 10 -69 -6 -22 -6
-58 2 -107 14 -89 5 -106 -37 -72 -37 29 -134 38 -154 14 -7 -9 -19 -16 -27
-16 -7 0 -24 -5 -37 -11 -21 -10 -23 -15 -17 -50 4 -21 7 -39 6 -40 0 0 -37
-1 -81 -2 -61 -2 -89 -7 -115 -23 -20 -11 -52 -23 -72 -27 -36 -5 -37 -5 -40
31 -2 20 -7 36 -13 36 -5 -1 -27 -4 -47 -8 -39 -7 -38 -8 -52 57 -4 18 -13 27
-26 27 -38 0 -22 35 30 69 48 31 80 73 80 105 0 11 -9 13 -37 10 -21 -3 -50
-5 -65 -4 -15 0 -31 -6 -35 -14 -6 -10 -30 -15 -81 -17 -65 -2 -75 0 -88 19
-8 13 -26 22 -40 22 -14 0 -23 5 -22 13 2 8 -13 13 -44 15 -49 3 -64 20 -28
29 14 4 20 14 20 34 0 27 -3 29 -37 29 -21 0 -45 5 -53 10 -13 8 -12 11 5 24
20 15 19 16 -10 40 -16 14 -36 25 -43 26 -12 0 -8 43 8 65 62 92 158 207 184
219 17 8 46 33 63 54 42 52 137 133 160 136 22 3 30 37 32 133 1 61 -2 76 -22
100 -13 15 -29 44 -37 63 -7 19 -27 50 -44 68 l-30 32 -324 0 -323 0 -60 -61
c-32 -33 -59 -66 -59 -73 0 -8 -7 -19 -15 -26 -8 -7 -15 -21 -15 -31 0 -10
-18 -53 -40 -95 -22 -43 -40 -84 -40 -92 0 -28 -34 -84 -55 -92 -18 -7 -21
-14 -17 -35 3 -19 -2 -34 -21 -53 -25 -27 -77 -167 -77 -207 0 -27 40 -65 67
-65 53 0 177 99 188 151 3 15 15 35 25 44 10 9 22 31 26 49 3 17 8 34 10 38 9
15 33 -5 39 -34 9 -40 42 -112 76 -169 16 -25 29 -57 29 -70 0 -25 32 -103 51
-126 9 -10 17 -9 40 8 29 21 60 22 66 4 2 -6 -12 -19 -31 -29 l-35 -19 0 -112
c0 -83 3 -117 14 -131 14 -19 15 -18 32 3 12 15 37 26 72 33 80 15 93 14 86
-9 -3 -11 -1 -22 5 -26 19 -12 10 -25 -17 -25 -16 0 -46 -7 -68 -14 -38 -13
-40 -17 -46 -63 -3 -26 -12 -64 -21 -83 -8 -19 -13 -41 -11 -47 7 -21 -25 -26
-60 -10 -20 10 -36 12 -41 6 -17 -16 -26 -10 -26 16 0 15 -10 31 -25 41 -14 9
-27 15 -28 13 -25 -45 -26 -48 -14 -52 12 -4 -43 -37 -63 -37 -8 0 -10 17 -8
46 2 36 -1 49 -14 58 -15 9 -25 3 -63 -34 l-46 -45 31 -25 c54 -45 34 -99 -42
-114 -16 -3 -39 -8 -53 -11 -19 -4 -25 -13 -30 -43 -14 -87 -14 -86 -35 -67
-11 10 -20 28 -20 41 0 31 -10 55 -21 48 -5 -3 -9 -18 -9 -33 0 -15 -11 -64
-25 -108 -23 -72 -30 -83 -60 -97 -26 -13 -36 -25 -41 -51 -3 -19 -7 -35 -9
-35 -1 0 -19 7 -39 15 -33 14 -36 19 -36 54 0 21 -9 59 -20 85 -25 55 -52 61
-94 17 -21 -22 -26 -34 -20 -55 3 -14 10 -29 15 -32 5 -3 9 -16 9 -28 0 -15 7
-26 20 -29 27 -7 29 -66 3 -74 -10 -3 -34 -25 -53 -48 -19 -24 -38 -44 -41
-44 -3 -1 -10 13 -15 30 -15 52 -29 33 -35 -48 -4 -53 -12 -90 -26 -115 -12
-20 -19 -39 -16 -42 13 -13 -24 -5 -43 9 -10 8 -26 15 -35 15 -9 0 -28 17 -42
37 l-26 37 -10 -27 c-14 -36 -57 -38 -63 -3 -4 20 1 27 34 42 21 9 38 22 38
28 0 6 7 23 14 38 26 50 18 360 -10 405 -8 12 -14 42 -14 65 0 47 -5 58 -34
74 -11 5 -20 18 -22 28 -4 26 -6 27 -71 30 -67 4 -116 21 -111 39 3 6 19 13
36 15 24 2 36 11 48 34 19 37 6 52 -40 43 -16 -3 -39 -5 -53 -5 -13 0 -34 -11
-47 -25 -25 -27 -83 -34 -104 -13 -9 9 -19 5 -42 -17 -16 -16 -30 -32 -30 -36
0 -15 96 -39 154 -39 65 -1 87 -15 130 -82 17 -26 17 -27 -7 -43 -21 -13 -29
-14 -45 -4 -12 8 -33 9 -58 5 l-39 -8 33 -13 c38 -16 41 -37 10 -60 -16 -12
-19 -19 -10 -22 7 -3 21 -14 32 -25 14 -15 25 -18 49 -13 l31 7 -6 -49 c-4
-26 -14 -61 -22 -78 -16 -32 -83 -95 -116 -109 -19 -8 -19 -9 10 -17 l32 -9 0
-84 c-1 -88 14 -146 38 -146 10 0 14 -13 14 -45 0 -25 5 -45 10 -45 6 0 10 -7
10 -15 0 -8 10 -19 21 -26 l21 -11 -23 -12 c-23 -11 -37 -50 -42 -116 -1 -14
-6 -30 -10 -36 -4 -7 0 -14 8 -18 18 -7 20 -56 3 -56 -7 0 -29 -4 -48 -10
l-35 -10 3 -55 c5 -72 -18 -94 -95 -95 -28 0 -58 -3 -67 -6 -25 -10 -19 -30
13 -44 29 -12 47 -35 33 -44 -14 -8 -122 -18 -122 -11 0 4 7 13 16 20 15 10
13 14 -18 33 -20 12 -42 22 -50 22 -8 0 -23 8 -32 19 -14 15 -16 31 -10 98 l7
80 -42 16 c-23 9 -41 24 -41 32 0 8 -4 15 -8 15 -18 0 -20 -13 -8 -34 19 -29
29 -151 16 -176 -7 -13 -21 -20 -42 -20 l-31 0 6 -80 c4 -67 3 -79 -8 -70 -8
6 -26 10 -42 8 -25 -3 -28 -7 -31 -46 -2 -29 -13 -58 -33 -84 -16 -23 -29 -48
-29 -57 -1 -9 -11 -36 -24 -61 l-24 -44 20 -27 c28 -37 12 -68 -31 -61 -26 4
-31 1 -31 -17 0 -14 8 -23 25 -27 31 -8 31 -15 1 -43 -23 -22 -24 -22 -37 -3
-8 10 -24 24 -37 31 -31 17 -113 4 -130 -20 -7 -11 -18 -19 -23 -19 -13 0 -48
41 -49 57 0 15 -39 28 -50 16 -4 -4 -10 -17 -12 -28 -4 -19 -5 -19 -17 4 -10
18 -10 25 -1 31 6 4 10 14 8 21 -2 8 13 29 32 46 l35 31 -38 7 c-20 4 -40 11
-43 16 -3 5 -19 9 -35 9 -30 0 -30 -1 -27 -47 2 -36 -1 -48 -12 -50 -15 -4
-17 2 -22 101 -3 42 0 51 25 72 32 27 38 74 8 74 -23 0 -72 -46 -88 -82 -12
-28 -34 -35 -67 -22 -9 3 -16 12 -16 20 0 8 -7 14 -15 14 -17 0 -20 -21 -5
-36 5 -5 9 -43 9 -84 0 -119 -3 -148 -16 -161 -7 -7 -13 -27 -13 -44 0 -25 8
-37 37 -58 l37 -26 -26 -10 c-15 -5 -29 -19 -33 -30 -3 -11 -22 -28 -41 -37
-31 -15 -37 -15 -68 0 -44 21 -53 20 -66 -4 -6 -11 -18 -20 -28 -20 -26 0
-155 -137 -148 -156 14 -36 18 -92 7 -98 -6 -4 -11 -22 -11 -41 0 -91 -49
-118 -67 -37 -11 51 -34 114 -44 122 -3 3 -9 34 -13 70 -5 55 -3 73 14 108 11
23 27 42 35 42 8 0 15 5 15 11 0 6 -7 9 -15 5 -18 -7 -20 16 -3 43 9 15 8 29
-6 66 l-18 47 28 51 c25 46 29 64 31 150 2 54 7 106 13 117 5 10 10 31 10 47
0 40 84 213 118 243 16 14 43 33 61 42 20 11 39 34 51 61 11 24 31 50 45 57
15 8 31 22 36 32 12 22 66 51 79 43 17 -10 11 -59 -10 -85 -11 -14 -20 -33
-20 -42 0 -21 39 -88 51 -88 5 0 9 -9 9 -20 0 -29 27 -25 61 9 24 25 29 37 29
78 -1 26 -7 59 -15 73 -22 38 -18 64 13 82 19 11 31 31 40 65 8 26 20 66 27
88 7 22 15 69 17 104 4 57 2 66 -20 88 -16 16 -22 31 -19 45 4 13 -2 31 -14
46 -16 21 -18 34 -13 91 4 39 13 69 20 74 21 12 16 207 -5 207 -4 0 -17 -9
-30 -21 -12 -12 -25 -18 -28 -15 -12 12 -33 -17 -33 -44 0 -32 -48 -112 -62
-103 -6 3 -7 24 -3 47 9 59 9 98 0 124 -6 18 -4 22 14 22 17 0 20 5 16 23 -2
12 -6 38 -7 57 -3 31 0 35 20 34 17 0 21 3 17 15 -4 9 -9 40 -12 69 -6 55 -16
70 -36 54 -7 -6 -29 -13 -49 -17 -47 -9 -50 5 -13 60 24 35 25 39 10 61 -11
18 -20 22 -33 15 -137 -68 -153 -74 -197 -68 -25 2 -54 12 -64 21 -24 22 -100
22 -116 0 -9 -13 -21 -15 -53 -9 -23 4 -42 11 -42 16 0 5 -11 9 -24 9 -41 0
-42 21 -3 55 l37 33 -33 5 c-17 3 -44 -1 -59 -8 -19 -9 -38 -10 -65 -4 -52 12
-123 12 -103 -1 25 -15 2 -25 -68 -27 -100 -3 -102 -4 -102 -12 0 -4 17 -16
38 -26 20 -10 45 -22 54 -26 10 -5 31 -9 48 -9 58 0 29 -18 -37 -23 -38 -3
-88 -10 -113 -15 -37 -8 -54 -7 -100 11 -38 14 -81 21 -140 22 -78 1 -88 4
-112 28 -24 24 -35 27 -93 27 -36 0 -74 -6 -85 -12 -16 -10 -23 -10 -35 3 -19
19 -11 69 11 69 8 0 14 7 14 15 0 16 -18 10 -83 -26 -10 -5 -26 -7 -36 -4 -10
3 -24 -1 -31 -10 -7 -8 -28 -15 -47 -15 -31 0 -35 3 -30 21 3 12 3 35 0 50 -5
29 -7 29 -76 29 -66 0 -72 -2 -108 -35 -22 -19 -46 -35 -54 -35 -8 0 -15 -7
-15 -15 0 -19 -36 -20 -43 -1 -4 9 -23 16 -49 18 -39 3 -43 6 -46 31 -3 26 -6
27 -56 27 -68 0 -116 -23 -116 -56 0 -28 -24 -32 -55 -10 -11 7 -39 17 -62 21
-27 4 -43 12 -43 21 0 18 -18 18 -54 -1 -15 -8 -35 -15 -42 -15 -8 0 -14 -4
-14 -10 0 -6 34 -10 81 -10 51 0 78 -4 74 -10 -3 -5 -21 -10 -39 -10 -27 0
-41 -10 -88 -63 l-55 -62 -51 3 c-40 3 -52 1 -52 -10 0 -11 -16 -14 -69 -14
-52 1 -74 -3 -88 -16 -12 -11 -27 -15 -41 -11 -12 3 -29 0 -37 -7 -8 -7 -23
-9 -36 -5 -16 6 -27 2 -39 -15 -22 -29 -55 -21 -47 11 6 21 3 21 -50 16 -31
-3 -61 -11 -66 -16 -15 -15 -84 -14 -90 2 -2 6 -8 9 -12 5 -5 -5 0 -16 9 -27
12 -13 14 -21 6 -26 -18 -11 -77 4 -84 21 -5 12 -15 15 -41 10 -19 -3 -50 -9
-69 -12 -34 -6 -35 -5 -41 32 -12 71 -13 69 35 74 37 4 46 9 48 27 2 16 -5 26
-30 39 -39 19 -88 63 -88 78 0 6 27 22 60 36 33 14 58 30 57 35 -4 11 -78 12
-153 0 -40 -6 -59 -4 -84 9 -18 9 -44 16 -57 16 -15 0 -22 4 -18 11 4 6 22 9
41 7 46 -4 65 16 38 42 -16 17 -25 18 -56 10 -20 -6 -39 -17 -42 -25 -4 -12
-10 -12 -37 -1 -17 7 -36 21 -41 30 -5 9 -22 16 -39 16 -32 0 -51 26 -29 40
11 7 11 14 3 32 -6 14 -9 45 -6 71 6 53 -2 58 -51 32 -15 -8 -34 -15 -41 -15
-18 0 -35 45 -35 94 0 44 -21 76 -51 76 -31 0 -52 26 -45 53 8 34 38 53 109
72 51 13 59 13 87 -3 23 -13 30 -24 30 -49 0 -17 4 -35 10 -38 5 -3 7 -19 3
-35 -5 -30 -5 -30 39 -30 34 0 50 6 66 23 23 25 29 76 11 94 -13 13 -5 18 42
27 27 5 40 2 50 -10 20 -25 70 -43 88 -33 9 4 43 15 76 24 33 9 85 30 116 46
31 16 71 29 89 29 19 0 42 8 53 18 17 15 54 18 316 25 384 10 440 9 534 -9 73
-15 80 -14 97 1 13 12 28 15 45 11 15 -4 38 0 58 10 17 10 50 19 72 20 22 2
52 9 67 15 14 6 37 9 50 7 19 -2 24 -10 26 -40 2 -20 9 -42 17 -48 8 -7 67
-12 147 -15 73 -1 149 -8 168 -14 19 -6 51 -11 71 -11 31 0 38 4 43 25 4 14
13 25 21 25 8 0 15 7 15 16 0 8 11 32 25 52 14 20 25 44 25 54 0 9 4 19 9 23
20 11 20 -14 1 -66 -11 -29 -20 -63 -20 -74 0 -12 -5 -26 -11 -32 -19 -19 -4
-41 24 -36 27 5 37 22 61 98 16 51 90 135 119 135 22 0 127 -116 127 -139 0
-12 -6 -30 -12 -41 -19 -31 3 -47 35 -25 32 20 39 10 39 -57 0 -41 4 -51 22
-58 35 -13 115 -30 141 -30 28 0 28 0 -2 108 -16 58 -12 96 12 106 21 8 45 -3
45 -21 0 -15 60 -93 73 -93 4 0 7 13 7 30 0 36 23 50 83 50 56 0 68 -14 76
-93 5 -39 18 -82 37 -117 24 -46 34 -55 59 -58 17 -2 39 3 49 11 17 13 18 19
8 60 -15 58 -15 99 0 132 l11 25 191 -5 c249 -7 345 -14 366 -25 9 -5 124 -9
256 -9 273 1 298 1 411 -1 45 -1 91 4 102 9 11 6 64 11 118 11 54 0 130 6 168
12 39 7 99 12 135 11 36 -1 87 4 114 12 62 19 90 7 76 -30 -8 -22 -7 -25 11
-25 12 0 34 11 50 24 15 13 50 32 76 41 26 9 82 30 123 45 42 16 107 34 145
41 39 7 86 21 105 31 19 10 47 18 63 18 15 0 40 6 55 14 15 7 63 17 108 21 88
7 120 18 86 29 -25 8 -146 11 -158 3 -15 -9 -45 19 -39 35 4 9 28 28 56 42 27
15 49 31 49 35 0 4 11 13 24 19 14 6 43 27 64 47 22 19 45 35 51 35 6 0 11 5
11 10 0 6 6 10 14 10 17 0 46 43 46 69 0 20 0 20 -35 0 -20 -12 -40 -30 -46
-40 -5 -11 -14 -17 -19 -14 -4 3 -21 -5 -37 -18 -50 -40 -177 -124 -199 -131
-12 -4 -29 -15 -39 -26 -10 -11 -26 -20 -36 -20 -10 0 -27 -14 -39 -31 -29
-40 -52 -35 -55 13 -2 32 2 39 24 49 29 13 71 71 71 98 0 9 5 22 12 29 7 7 11
44 10 97 -1 78 0 85 18 85 11 0 43 9 72 19 37 14 98 23 198 29 108 7 -41 9
-590 10 -404 1 -741 -2 -749 -7 -18 -11 -5 -31 20 -31 11 0 48 -14 82 -31 71
-36 101 -38 325 -20 141 11 172 6 172 -27 0 -10 5 -23 11 -29 5 -5 29 -43 52
-83 23 -40 49 -77 57 -80 76 -35 109 -61 110 -87 0 -16 -63 -17 -91 -2 -11 5
-47 15 -80 20 -36 6 -67 17 -79 29 -12 12 -33 20 -51 20 l-32 0 27 -25 c15
-14 39 -25 54 -25 16 0 41 -12 59 -29 20 -18 48 -32 75 -36 107 -16 119 -23
76 -46 -24 -13 -257 -53 -398 -69 -47 -6 -107 -14 -135 -20 -27 -5 -77 -10
-110 -9 -33 0 -105 -2 -160 -6 -125 -8 -136 -2 -110 54 18 41 18 42 -1 78 -18
34 -80 88 -131 115 -29 14 -30 53 -3 70 15 10 20 24 20 55 0 37 4 44 30 58 16
8 40 15 54 15 23 0 95 15 136 27 8 3 -12 14 -45 25 -33 11 -69 28 -81 39 -11
10 -29 19 -40 19 -10 1 -44 9 -74 20 -65 23 -218 28 -238 8 -10 -10 -17 -10
-32 0 -12 7 -60 12 -130 12 l-110 0 10 -24 c8 -22 6 -25 -20 -31 -47 -10 -73
2 -66 31 6 23 4 24 -44 24 -36 0 -52 -4 -56 -15 -4 -8 -11 -15 -18 -15 -6 0
-26 -29 -44 -65 -28 -57 -38 -68 -78 -85 -25 -11 -59 -20 -75 -20 -17 0 -32
-6 -35 -15 -4 -10 -20 -15 -48 -15 -36 0 -45 -4 -55 -26 -11 -25 -13 -25 -30
-10 -10 9 -21 16 -26 16 -11 0 -95 92 -95 105 0 6 35 21 78 33 42 13 86 27 97
32 11 5 58 18 104 30 181 45 150 50 -333 50 l-435 0 -3 -22 c-3 -24 -86 -76
-123 -78 -11 0 -38 -8 -60 -16 -22 -9 -80 -31 -130 -49 -49 -18 -97 -35 -105
-38 -53 -21 -109 -37 -132 -37 -16 0 -28 -5 -28 -11 0 -17 158 -4 179 15 44
40 64 7 36 -60 -14 -33 -16 -34 -54 -28 -36 6 -42 4 -49 -15 -6 -16 -27 -29
-77 -46 -39 -13 -71 -19 -73 -14 -4 11 -82 12 -82 1 0 -4 6 -14 13 -21 10 -11
7 -13 -18 -8 -42 7 -97 -17 -88 -39 5 -15 2 -16 -28 -10 -84 16 -110 18 -123
7 -15 -13 -116 -12 -116 1 0 4 9 8 21 8 11 0 33 14 47 30 15 17 36 30 48 30
12 0 27 7 34 15 17 20 94 54 152 66 46 10 68 34 54 58 -3 5 8 14 24 20 17 5
30 15 30 21 0 6 17 17 38 26 20 9 51 22 67 30 41 18 113 44 155 54 19 5 67 21
105 35 39 15 99 37 135 48 l65 22 -250 3 c-183 2 -256 -1 -273 -10 -18 -9 -25
-9 -31 0 -6 9 -546 11 -2423 10 l-2416 -3 42 -47 c24 -25 60 -67 81 -92 20
-25 44 -46 52 -46 7 0 16 -8 20 -17 3 -10 19 -31 35 -48 81 -84 118 -127 118
-141 0 -11 -4 -12 -19 -5 -19 11 -123 124 -129 142 -2 5 -17 16 -32 24 -16 8
-31 23 -34 33 -3 10 -19 26 -36 35 -16 10 -30 24 -30 30 0 18 -117 137 -135
137 -8 0 -15 -3 -15 -7z m7250 -52 c12 -24 13 -71 1 -71 -5 0 -11 7 -15 15 -3
8 -12 15 -19 15 -19 0 -50 36 -42 49 11 19 63 13 75 -8z m-4362 -57 c-9 -9
-21 -13 -27 -9 -16 10 -3 25 22 25 20 0 20 -1 5 -16z m-78 -43 c0 -12 -39 -25
-48 -16 -7 7 17 25 36 25 6 0 12 -4 12 -9z m-2090 -63 c0 -16 -4 -28 -9 -28
-11 0 -23 59 -15 72 9 15 24 -12 24 -44z m2010 31 c0 -6 -9 -13 -19 -16 -11
-3 -22 -11 -25 -18 -2 -7 -19 -16 -37 -20 -18 -4 -46 -16 -63 -26 -17 -10 -37
-19 -45 -19 -7 0 -29 -13 -48 -30 -18 -16 -43 -30 -53 -30 -11 0 -30 -11 -42
-25 -17 -19 -31 -25 -65 -25 -35 0 -43 -3 -43 -19 0 -11 -9 -21 -22 -24 -42
-9 -92 -32 -110 -49 -9 -9 -33 -20 -54 -24 -24 -4 -38 -13 -41 -25 -5 -20 -47
-27 -57 -10 -3 4 -18 11 -33 14 -16 4 -39 16 -53 27 -21 17 -23 21 -10 30 23
15 52 12 93 -9 27 -14 49 -17 84 -13 55 5 63 10 43 22 -11 7 -8 10 13 10 15 0
27 4 27 9 0 5 9 13 21 16 12 4 30 16 40 26 10 10 28 19 38 19 11 0 22 4 25 9
3 5 23 12 43 16 21 4 52 17 69 30 18 14 50 32 73 41 22 9 41 20 41 25 0 11 54
39 74 39 8 0 35 13 58 30 44 30 78 39 78 19z m2805 -81 c11 -28 23 -36 82 -56
37 -13 91 -24 118 -25 l50 -2 -3 36 c-3 44 23 61 48 31 8 -10 28 -26 43 -36
22 -14 28 -23 24 -42 -5 -30 5 -38 83 -69 80 -31 115 -54 103 -66 -15 -15
-244 44 -313 80 -9 5 -36 12 -60 16 -50 8 -154 42 -185 61 -11 7 -39 18 -62
25 -24 7 -43 14 -43 17 0 2 10 17 23 32 32 42 74 41 92 -2z m1205 -29 c34 -23
63 -47 64 -53 2 -6 9 -33 15 -60 14 -57 41 -94 94 -127 43 -28 48 -56 11 -65
-30 -8 -473 13 -524 24 -48 11 -52 46 -11 103 17 23 31 51 31 62 0 28 51 117
74 130 22 12 88 23 147 26 28 1 52 -9 99 -40z m-2098 7 c11 -17 -23 -46 -54
-46 -38 0 -49 27 -20 51 23 18 61 15 74 -5z m-3893 -80 c6 -25 11 -57 11 -71
0 -15 5 -25 13 -24 6 1 29 -5 49 -14 64 -29 221 -46 523 -57 222 -8 485 -27
553 -39 2 -1 2 -11 0 -23 -2 -17 -9 -22 -23 -20 -50 9 -360 23 -665 31 -184 4
-343 12 -352 16 -17 7 -18 -2 -18 -101 0 -84 3 -111 16 -125 9 -10 18 -37 21
-61 3 -24 14 -63 25 -88 12 -25 22 -61 23 -80 2 -19 3 -41 4 -47 2 -26 41 -53
75 -53 41 0 86 33 86 65 0 32 20 45 93 62 34 8 72 17 85 20 30 7 62 -22 62
-59 0 -17 5 -28 14 -28 8 0 16 -5 18 -11 4 -13 75 -28 133 -29 109 -1 156 47
95 99 l-30 26 21 33 c40 61 64 67 333 84 42 3 44 1 60 -74 15 -66 206 -105
206 -42 0 26 31 64 66 80 40 19 43 36 9 62 -14 11 -25 23 -25 26 0 3 24 6 53
6 65 -1 92 -19 83 -56 -10 -39 50 -119 80 -107 18 7 36 -31 22 -45 -7 -7 -16
-12 -22 -12 -5 0 -24 -11 -42 -25 -18 -14 -37 -25 -42 -25 -4 0 -19 -11 -32
-25 -13 -14 -27 -25 -31 -25 -4 0 -20 -11 -34 -24 -28 -26 -19 -44 14 -26 22
11 71 13 95 4 20 -8 21 -34 2 -34 -25 0 -28 -32 -4 -57 20 -21 23 -36 24 -106
1 -45 5 -121 8 -168 6 -73 4 -87 -9 -92 -24 -10 -18 -53 10 -71 l26 -17 -26
-30 c-14 -18 -25 -43 -25 -60 0 -25 4 -29 28 -29 43 0 54 -13 50 -56 -3 -34
-6 -39 -33 -44 -41 -7 -40 -34 3 -38 l32 -3 0 -79 c0 -43 -4 -90 -9 -103 -17
-44 -4 -66 43 -69 33 -2 41 -7 41 -23 0 -17 -7 -20 -38 -20 -32 0 -41 -5 -54
-28 -22 -42 -11 -57 42 -57 46 0 60 -14 25 -25 -11 -3 -23 -17 -26 -30 -8 -34
-24 -43 -66 -38 -51 7 -40 33 14 33 23 0 37 4 33 10 -3 6 -15 10 -26 10 -12 0
-19 7 -19 18 0 13 -15 23 -53 35 -52 16 -53 18 -49 48 4 24 -1 36 -16 48 -27
22 -39 79 -18 87 27 10 18 31 -16 38 -18 4 -44 15 -58 25 -23 19 -24 20 -7 38
9 11 20 34 23 51 9 44 -21 56 -50 19 -19 -23 -23 -24 -40 -12 -18 14 -18 25
-1 83 6 19 2 24 -29 37 -20 9 -55 17 -79 19 -56 6 -97 15 -124 28 -17 8 -34 8
-63 -1 -22 -6 -61 -11 -85 -10 -47 3 -48 4 -57 64 -2 14 -11 20 -31 21 -37 1
-45 11 -49 59 -2 31 -9 43 -30 55 -23 13 -31 13 -49 2 -18 -11 -24 -11 -40 4
-24 22 -24 36 2 60 17 15 19 26 15 59 -5 34 -2 44 19 68 14 15 32 27 40 27 8
0 15 8 15 18 0 10 5 23 11 29 6 6 7 13 2 16 -4 3 -31 -10 -58 -29 -28 -19 -66
-39 -86 -45 -19 -6 -43 -23 -53 -38 -20 -29 -73 -53 -123 -55 -17 0 -31 -5
-30 -10 2 -9 -20 -23 -114 -75 -20 -11 -39 -26 -42 -34 -9 -25 29 -187 45
-187 5 0 22 7 37 15 22 11 30 24 35 55 5 31 14 45 41 62 19 13 37 30 40 39 4
10 20 19 43 22 44 5 60 -2 41 -17 -8 -6 -18 -19 -24 -27 -33 -53 -68 -99 -99
-132 -20 -21 -36 -41 -36 -45 0 -4 -10 -12 -22 -17 -13 -6 -25 -21 -28 -35 -7
-33 -39 -80 -56 -80 -9 0 -14 17 -16 53 -3 48 -5 52 -30 55 -47 6 -52 21 -40
134 11 99 10 103 -11 126 -18 19 -23 40 -29 119 -3 53 -11 100 -17 106 -6 6
-11 26 -11 44 0 34 -18 83 -31 83 -4 0 -10 28 -13 63 -9 115 -17 145 -37 150
-29 8 -65 125 -53 173 3 13 -2 47 -12 77 -12 35 -18 85 -19 154 -1 93 -3 104
-25 128 -17 18 -27 46 -36 103 -7 42 -13 85 -13 95 -1 32 16 9 28 -37z m3255
39 c12 -12 14 -28 9 -63 -9 -71 -18 -82 -63 -82 -22 0 -57 -6 -77 -14 -52 -19
-161 -34 -201 -28 -22 3 -43 17 -67 45 -57 66 -48 84 53 112 50 14 71 16 98 7
26 -8 36 -7 42 3 6 10 42 17 179 34 6 0 19 -6 27 -14z m-2358 -10 c19 -14 19
-14 -2 -15 -11 0 -29 7 -40 15 -19 14 -19 14 2 15 11 0 29 -7 40 -15z m4710
-6 c7 -11 -43 -96 -60 -102 -17 -7 -41 18 -51 52 -6 20 -2 29 19 46 27 21 80
24 92 4z m-835 -54 c81 -41 120 -55 151 -55 63 0 178 -30 178 -46 0 -18 -43
-28 -78 -19 -15 3 -67 10 -115 15 -104 10 -150 24 -195 58 -18 14 -47 33 -65
42 -18 10 -33 27 -35 39 -6 36 40 26 159 -34z m-3791 15 c13 -8 13 -10 -2 -10
-9 0 -20 5 -23 10 -8 13 5 13 25 0z m3259 -41 c39 -14 41 -40 7 -104 -38 -71
-82 -107 -125 -103 -34 3 -36 5 -39 41 -2 23 3 48 12 62 9 14 16 33 16 44 0
22 27 41 59 41 12 0 21 7 21 15 0 18 7 18 49 4z m-4519 -14 c0 -8 -2 -15 -4
-15 -2 0 -6 7 -10 15 -3 8 -1 15 4 15 6 0 10 -7 10 -15z m3728 -32 c-10 -2
-26 -2 -35 0 -10 3 -2 5 17 5 19 0 27 -2 18 -5z m-3668 -34 c0 -12 -27 -11
-35 1 -11 17 5 32 21 19 8 -6 14 -15 14 -20z m6639 -9 c79 -39 64 -74 -36 -83
-42 -3 -63 -1 -66 6 -7 20 14 67 36 82 26 18 15 19 66 -5z m-6836 -71 c20 -6
37 -12 37 -15 0 -3 -20 -14 -45 -25 -44 -20 -44 -20 -65 1 -11 11 -27 20 -35
20 -15 0 -20 21 -8 33 7 8 51 2 116 -14z m1839 -7 c14 -14 -9 -24 -60 -26 -31
-1 -38 3 -40 21 -3 20 0 22 42 19 26 -1 51 -7 58 -14z m470 3 c146 1 165 -5
104 -30 -51 -21 -526 -6 -526 17 0 21 50 27 160 20 63 -4 181 -7 262 -7z m451
8 c13 -13 -16 -33 -49 -33 -37 0 -37 0 -28 24 6 16 64 23 77 9z m-153 -13 c10
-7 -5 -10 -53 -10 -43 0 -66 4 -62 10 8 13 95 13 115 0z m235 -19 c7 -12 -12
-24 -25 -16 -11 7 -4 25 10 25 5 0 11 -4 15 -9z m-3019 -150 c4 -34 14 -57 30
-72 13 -12 24 -31 24 -41 0 -10 7 -30 16 -43 15 -24 15 -25 -7 -34 -21 -8 -22
-10 -6 -16 24 -10 21 -38 -5 -50 -19 -8 -24 -19 -26 -62 -2 -42 -7 -53 -20
-53 -9 0 -24 15 -32 33 -13 28 -21 33 -60 37 -32 4 -46 10 -48 23 -2 11 3 17
15 18 10 0 29 14 42 31 23 29 24 31 7 44 -15 11 -17 21 -11 61 4 26 11 56 16
65 7 13 4 20 -11 28 -24 13 -25 28 -4 58 10 14 25 22 44 22 28 0 30 -3 36 -49z
m-496 -207 c0 -8 -4 -12 -10 -9 -5 3 -10 10 -10 16 0 5 5 9 10 9 6 0 10 -7 10
-16z m290 -87 c0 -7 9 -23 20 -35 28 -29 25 -35 -12 -28 -18 4 -47 9 -65 12
-34 6 -35 26 -4 51 21 16 61 16 61 0z m722 -42 c15 -17 28 -23 43 -19 28 7 75
-31 75 -61 0 -28 -34 -55 -71 -55 -38 0 -89 -20 -89 -35 0 -20 25 -36 56 -33
66 4 93 -2 99 -23 4 -11 20 -36 37 -55 35 -40 70 -178 66 -259 -3 -45 -6 -50
-33 -60 -35 -12 -45 -22 -45 -52 0 -17 9 -24 38 -32 20 -6 43 -11 50 -11 7 0
17 -12 23 -27 6 -16 17 -39 24 -53 33 -64 29 -198 -6 -207 -39 -11 -11 -93 31
-93 35 0 32 -32 -5 -68 -29 -28 -40 -33 -63 -27 -15 3 -52 6 -82 5 -83 -1
-190 -50 -111 -50 30 0 41 -18 41 -72 0 -20 8 -30 30 -40 48 -21 36 -38 -33
-46 l-40 -4 6 31 c6 29 4 32 -23 38 -17 3 -33 10 -36 14 -3 5 -16 9 -29 9 -13
0 -27 5 -30 10 -8 12 -40 13 -63 1 -9 -5 -50 -14 -90 -20 -40 -6 -91 -21 -113
-34 -34 -19 -41 -20 -49 -7 -15 23 -12 38 10 45 23 7 26 37 6 54 -7 6 -31 17
-52 24 -41 14 -57 48 -35 70 6 6 11 20 11 30 0 11 11 30 25 43 22 21 25 31 25
98 0 50 4 76 13 79 8 3 6 10 -8 21 -20 16 -20 17 3 32 12 9 22 23 22 31 0 12
6 13 28 7 15 -4 36 -7 48 -7 23 1 104 51 104 64 0 5 -29 9 -65 9 -44 0 -67 4
-71 13 -2 7 5 41 16 76 11 35 20 71 20 80 0 9 9 41 20 71 11 30 20 66 20 80
-1 24 59 150 71 150 19 0 40 -32 49 -77 5 -28 21 -76 36 -105 15 -29 31 -61
35 -70 5 -10 9 -26 9 -35 0 -10 14 -38 31 -63 30 -44 31 -47 24 -131 -6 -79
-4 -89 19 -133 13 -25 30 -72 36 -104 19 -94 40 -152 57 -152 10 0 13 6 9 16
-7 19 20 54 41 54 11 0 13 8 8 33 -9 41 -14 49 -26 42 -5 -4 -9 21 -9 57 -1
39 -6 70 -15 82 -8 11 -15 31 -15 44 0 13 -9 35 -20 49 -12 16 -20 41 -20 67
-1 31 -8 50 -30 76 -22 25 -30 45 -30 73 0 21 -9 57 -20 79 -11 23 -20 46 -20
52 0 5 -17 44 -37 85 -39 80 -81 131 -107 131 -23 0 -20 12 14 51 27 29 30 39
24 73 -4 24 -3 36 3 33 18 -12 72 16 78 40 7 30 30 29 57 -2z m-238 -67 c17
-24 21 -58 8 -58 -10 0 -29 -59 -36 -113 -3 -20 -14 -50 -25 -66 -12 -16 -21
-35 -21 -43 0 -7 -9 -28 -20 -46 -11 -18 -20 -46 -20 -62 0 -16 -4 -32 -10
-35 -5 -3 -10 -23 -10 -43 0 -31 -8 -45 -42 -78 -37 -35 -51 -42 -98 -47 -30
-3 -66 -9 -79 -13 -18 -5 -23 -4 -19 7 3 8 12 13 22 11 22 -4 20 15 -3 28 -11
5 -23 19 -26 30 -3 11 -15 20 -25 20 -10 0 -39 21 -64 48 -35 36 -46 55 -46
80 0 17 4 32 9 32 5 0 11 9 14 20 7 29 27 25 27 -6 0 -41 25 -23 28 22 4 40
17 57 40 49 7 -3 12 5 12 21 0 33 19 39 88 26 31 -5 84 -7 117 -3 59 6 59 6
70 46 5 22 16 50 23 62 6 12 12 30 12 41 0 11 6 30 13 43 30 58 38 61 61 27z
m76 -28 c-6 -11 -15 -20 -21 -20 -6 0 -6 7 1 20 6 11 15 20 21 20 6 0 6 -7 -1
-20z m9310 -49 c5 -11 29 -26 52 -33 37 -13 44 -20 52 -52 10 -46 -2 -61 -57
-69 -36 -6 -39 -4 -49 24 -5 16 -16 29 -24 29 -7 0 -20 13 -28 28 -13 26 -13
32 4 60 23 37 35 40 50 13z m-10080 -10 c0 -11 5 -23 10 -26 6 -4 8 -11 4 -16
-3 -5 -15 2 -25 16 -11 13 -17 29 -14 35 10 17 25 11 25 -9z m4598 -114 c2
-10 -3 -17 -12 -17 -18 0 -29 16 -21 31 9 14 29 6 33 -14z m5176 15 c5 -8 -13
-92 -21 -102 -2 -2 -8 2 -13 10 -11 17 -13 83 -3 93 9 10 31 9 37 -1z m-9712
-134 c1 -16 7 -28 15 -28 8 0 13 -12 13 -32 l0 -32 -21 21 c-18 17 -22 35 -25
109 -3 82 -2 85 7 39 6 -27 11 -62 11 -77z m10543 42 c0 -32 -27 -38 -55 -10
-26 26 -17 42 23 38 27 -2 32 -7 32 -28z m-105 -10 c0 -5 -4 -10 -10 -10 -5 0
-10 5 -10 10 0 6 5 10 10 10 6 0 10 -4 10 -10z m-232 -49 c2 -14 -5 -31 -17
-42 -26 -25 -41 -24 -41 2 0 11 4 18 9 15 5 -4 12 8 16 24 8 35 28 35 33 1z
m-5848 5 c0 -3 -4 -8 -10 -11 -5 -3 -10 -1 -10 4 0 6 5 11 10 11 6 0 10 -2 10
-4z m5339 -56 c13 -23 32 -42 46 -46 25 -6 35 -29 35 -81 0 -31 2 -33 38 -33
20 1 53 9 72 19 35 19 35 19 57 -5 12 -13 31 -24 41 -24 33 0 46 -25 34 -67
-27 -98 -39 -118 -69 -121 -24 -2 -37 5 -66 37 -25 28 -48 42 -74 47 -21 4
-41 11 -44 17 -9 13 -69 -29 -69 -48 0 -8 -26 -26 -57 -40 l-58 -27 2 -96 c1
-54 3 -145 5 -204 2 -66 -1 -109 -7 -110 -20 -6 -54 85 -55 147 0 33 -5 94
-10 135 -6 57 -5 91 7 140 8 36 16 119 18 185 2 66 5 121 6 123 1 1 2 5 3 10
4 19 19 32 40 32 14 0 30 10 40 25 23 35 39 31 65 -15z m-4050 -1 c11 -18 11
-23 0 -30 -8 -5 -20 -2 -30 7 -8 7 -28 14 -42 14 -17 0 -27 5 -27 15 0 25 82
20 99 -6z m-1812 -51 c18 -7 33 -16 33 -20 0 -4 -3 -7 -7 -6 -14 3 -78 -14
-90 -24 -14 -11 -43 -4 -43 11 0 5 11 12 25 15 14 4 28 13 31 21 7 18 9 18 51
3z m6103 -7 c0 -5 3 -17 7 -26 5 -15 3 -16 -15 -6 -13 7 -19 17 -16 26 7 16
24 21 24 6z m640 -11 c0 -5 -9 -10 -20 -10 -11 0 -20 5 -20 10 0 6 9 10 20 10
11 0 20 -4 20 -10z m-2380 -54 c0 -28 -4 -34 -25 -38 -30 -6 -31 -2 -5 40 25
41 30 40 30 -2z m-8004 -103 c-11 -11 -19 6 -11 24 8 17 8 17 12 0 3 -10 2
-21 -1 -24z m220 -190 c-4 -21 -8 -50 -9 -65 -1 -16 -5 -28 -8 -28 -3 0 -20
-20 -37 -45 l-32 -46 -31 23 c-23 16 -33 19 -36 11 -7 -20 -20 -15 -26 8 -5
20 -10 21 -60 16 -46 -6 -58 -4 -77 13 -23 20 -24 21 -4 46 24 32 112 64 179
64 28 1 65 9 85 19 55 29 63 27 56 -16z m-296 -19 c0 -8 -4 -14 -10 -14 -5 0
-10 9 -10 21 0 11 5 17 10 14 6 -3 10 -13 10 -21z m2080 6 c0 -5 -4 -10 -10
-10 -5 0 -10 5 -10 10 0 6 5 10 10 10 6 0 10 -4 10 -10z m-2160 -80 c0 -10
-31 -23 -38 -15 -8 7 19 35 29 29 5 -3 9 -9 9 -14z m6648 -29 c3 -8 -1 -12 -9
-9 -7 2 -15 10 -17 17 -3 8 1 12 9 9 7 -2 15 -10 17 -17z m52 -52 c0 -20 -15
-26 -25 -9 -9 15 3 43 15 35 5 -3 10 -15 10 -26z m-6540 -74 c0 -6 -6 -20 -14
-31 -14 -19 -15 -19 -40 5 l-26 25 22 23 c20 21 23 22 40 6 10 -9 18 -21 18
-28z m4843 -12 c-8 -3 -13 -23 -13 -49 0 -44 -6 -52 -44 -58 -8 -1 -24 -10
-35 -20 -16 -15 -28 -16 -73 -9 -37 6 -54 13 -56 25 -2 12 5 17 25 20 24 3 28
7 25 30 -3 31 20 48 67 48 16 0 33 5 36 10 3 6 23 10 43 9 20 0 31 -3 25 -6z
m282 -51 c0 -18 -20 -15 -23 4 -3 10 1 15 10 12 7 -3 13 -10 13 -16z m-4265
-36 c0 -31 -14 -40 -30 -21 -15 18 -6 45 15 45 9 0 15 -9 15 -24z m7158 -53
c-3 -47 -22 -69 -30 -35 -9 31 3 82 19 82 11 0 13 -11 11 -47z m196 11 c9 -3
13 -10 10 -15 -3 -5 0 -9 5 -9 14 0 14 -37 1 -45 -18 -11 -32 6 -18 22 11 14
10 15 -8 9 -13 -4 -26 -1 -33 8 -22 27 4 45 43 30z m-8014 -14 c0 -5 -4 -10
-10 -10 -5 0 -10 5 -10 10 0 6 5 10 10 10 6 0 10 -4 10 -10z m4900 -5 c0 -19
-24 -29 -47 -20 -17 6 -17 7 1 21 26 18 46 18 46 -1z m-270 -54 c0 -34 -14
-46 -51 -43 -17 1 -39 -8 -58 -24 -30 -25 -31 -25 -55 -7 -14 10 -26 28 -26
39 0 18 7 23 38 27 20 2 55 12 77 20 61 24 75 22 75 -12z m-285 10 c7 -12 -12
-24 -25 -16 -11 7 -4 25 10 25 5 0 11 -4 15 -9z m-4388 -113 c8 -9 27 -18 42
-20 24 -3 27 -8 35 -67 7 -53 5 -70 -8 -92 -20 -35 -14 -51 34 -84 21 -15 41
-33 44 -41 3 -8 11 -14 19 -14 7 0 24 -11 37 -25 26 -28 48 -32 56 -11 3 8 18
19 33 24 20 7 30 19 34 41 5 23 12 31 28 31 19 0 21 -4 15 -30 -3 -17 -20 -51
-36 -76 -17 -24 -30 -52 -29 -62 3 -38 -2 -53 -23 -61 -20 -8 -34 2 -110 80
-49 48 -88 93 -88 98 0 6 -12 16 -26 23 -24 12 -66 69 -80 110 -8 22 -33 31
-50 17 -11 -9 -16 -6 -23 14 -5 14 -20 35 -32 46 l-23 21 27 0 c15 0 43 7 62
14 35 15 35 15 37 83 1 39 3 53 5 33 3 -19 11 -43 20 -52z m533 -5 c0 -23 -8
-31 -45 -48 -45 -20 -53 -29 -35 -40 6 -3 10 -13 10 -21 0 -17 -83 -20 -125
-4 -21 8 -26 16 -23 38 3 24 7 27 48 30 25 2 48 9 52 17 5 7 26 16 48 20 25 4
40 12 40 21 0 8 7 14 15 14 10 0 15 -10 15 -27z m1750 12 c0 -1 -11 -5 -25 -7
-16 -3 -25 -1 -25 7 0 8 9 10 25 7 14 -2 25 -6 25 -7z m-2495 -36 c25 -48 14
-71 -13 -26 -12 21 -22 42 -22 48 0 20 20 8 35 -22z m1186 10 c16 -11 66 -38
111 -59 54 -25 104 -59 143 -95 33 -31 72 -64 86 -72 14 -9 34 -35 44 -59 22
-55 50 -81 97 -89 38 -7 52 -25 49 -62 -3 -26 26 -32 35 -8 4 8 18 15 33 15
15 0 32 5 37 10 6 6 25 12 44 15 18 2 38 9 43 14 6 6 22 11 35 11 31 0 62 17
62 35 0 17 26 20 35 5 3 -5 17 -10 31 -10 14 0 34 -9 46 -20 12 -11 31 -20 43
-20 27 0 115 -85 115 -111 0 -14 9 -21 30 -26 38 -7 45 -18 41 -64 -3 -43 18
-89 65 -142 19 -20 34 -47 34 -60 0 -12 7 -31 15 -41 9 -11 15 -41 15 -68 0
-43 -3 -50 -27 -60 -47 -21 -94 -60 -89 -75 3 -7 -1 -13 -9 -13 -15 0 -20 -13
-31 -72 -3 -21 -12 -42 -20 -49 -8 -6 -14 -17 -14 -23 -1 -26 -22 -39 -84 -51
-60 -12 -67 -11 -83 7 -15 17 -18 17 -26 3 -10 -18 9 -49 24 -39 20 12 30 -8
13 -27 -19 -21 -73 -26 -91 -8 -15 15 -33 3 -33 -21 0 -23 -20 -30 -63 -23
-30 4 -33 8 -29 30 3 14 13 28 23 30 26 7 24 26 -7 63 -22 26 -33 31 -63 28
-35 -3 -36 -2 -36 32 1 40 -18 59 -57 60 -17 0 -42 15 -72 45 -50 48 -56 51
-156 60 -108 10 -120 15 -120 44 0 26 21 43 36 30 7 -6 18 -8 24 -4 15 9 -7
35 -30 35 -22 0 -89 67 -97 98 -3 13 0 35 6 49 16 34 1 51 -31 35 -33 -16
-174 -30 -186 -17 -12 12 23 26 53 21 26 -3 36 2 64 36 34 40 34 40 17 75 -16
34 -16 35 9 65 35 42 31 78 -12 97 -18 8 -35 22 -38 31 -3 11 -20 20 -41 23
-36 6 -57 24 -74 63 -6 14 -21 23 -47 27 -21 4 -48 15 -60 26 -11 11 -38 21
-59 23 -36 3 -39 6 -45 40 -5 31 -2 38 18 47 21 10 24 17 22 57 -2 39 1 50 22
67 13 10 25 24 25 31 1 6 2 14 3 19 0 4 35 7 77 7 61 0 82 -4 105 -21z m3076
5 c-3 -3 -12 -4 -19 -1 -8 3 -5 6 6 6 11 1 17 -2 13 -5z m-1606 -64 c5 0 9 -6
9 -14 0 -15 -51 -29 -75 -20 -10 4 -18 -3 -25 -20 -7 -19 -17 -26 -35 -26 -22
0 -25 4 -25 36 0 35 1 35 38 33 20 -2 46 2 57 9 11 6 26 9 33 7 8 -3 18 -5 23
-5z m1859 -3 c0 -20 -9 -25 -31 -20 -28 8 -24 33 6 33 14 0 25 -6 25 -13z
m6000 3 c0 -5 -4 -10 -10 -10 -5 0 -10 5 -10 10 0 6 5 10 10 10 6 0 10 -4 10
-10z m130 -45 c0 -30 5 -47 14 -51 20 -8 28 -44 10 -50 -50 -15 -50 -14 -7
-55 55 -52 63 -77 32 -100 -39 -30 -89 -19 -89 19 0 7 -18 30 -39 51 -32 31
-45 37 -69 33 -17 -2 -47 1 -66 8 -20 6 -51 13 -69 15 -17 2 -51 7 -74 11 -56
9 -73 -6 -73 -63 0 -50 21 -88 60 -108 15 -8 31 -26 34 -40 7 -29 26 -32 61
-9 23 15 28 15 59 0 31 -15 46 -33 46 -57 0 -13 -86 0 -152 23 -43 15 -66 32
-98 69 -45 54 -55 79 -65 156 -5 50 -4 55 29 90 l34 38 103 1 c85 1 104 4 115
19 12 16 16 16 63 0 28 -9 53 -21 56 -26 4 -5 15 -9 26 -9 15 0 19 7 19 33 0
36 6 47 27 47 9 0 13 -14 13 -45z m-10174 -17 c3 -13 13 -31 22 -40 13 -16 13
-18 -1 -24 -20 -7 -37 3 -37 22 0 8 -9 14 -20 14 -20 0 -28 28 -13 43 14 15
42 6 49 -15z m2124 -34 c0 -9 -5 -14 -12 -12 -18 6 -21 28 -4 28 9 0 16 -7 16
-16z m-1993 -26 c-3 -8 -6 -5 -6 6 -1 11 2 17 5 13 3 -3 4 -12 1 -19z m4071
-40 c-6 -18 -28 -21 -28 -4 0 9 7 16 16 16 9 0 14 -5 12 -12z m6060 -34 c-10
-10 -28 6 -28 24 0 15 1 15 17 -1 9 -9 14 -19 11 -23z m-9894 -75 c-3 -5 -10
-7 -15 -3 -5 3 -7 10 -3 15 3 5 10 7 15 3 5 -3 7 -10 3 -15z m3402 -14 c19
-15 19 -16 -3 -31 -17 -12 -23 -26 -23 -56 0 -28 -5 -40 -17 -44 -10 -3 -35
-13 -55 -21 -27 -12 -46 -13 -68 -7 l-31 9 33 35 c20 23 34 49 38 75 4 31 10
41 30 46 42 12 75 10 96 -6z m594 -64 c0 -11 -26 -22 -34 -14 -12 12 -5 23 14
23 11 0 20 -4 20 -9z m-332 -76 c3 -10 0 -15 -7 -11 -6 4 -11 2 -11 -3 0 -6
-9 -11 -20 -11 -25 0 -27 37 -2 43 26 7 37 2 40 -18z m-4291 -52 c-3 -10 -5
-2 -5 17 0 19 2 27 5 18 2 -10 2 -26 0 -35z m4231 0 c-4 -22 -48 -31 -48 -10
0 19 10 27 32 27 13 0 18 -6 16 -17z m-58 -60 c-1 -37 -32 -78 -54 -70 -22 9
-20 39 5 71 27 34 49 34 49 -1z m-4110 -164 c0 -18 -4 -28 -10 -24 -5 3 -10
20 -10 36 0 18 4 28 10 24 6 -3 10 -20 10 -36z m30 -105 c0 -8 -4 -12 -10 -9
-5 3 -10 13 -10 21 0 8 5 12 10 9 6 -3 10 -13 10 -21z m6550 2 c0 -3 -4 -8
-10 -11 -5 -3 -10 -1 -10 4 0 6 5 11 10 11 6 0 10 -2 10 -4z m-207 -41 c-17
-23 -33 -32 -33 -19 0 16 23 44 36 44 13 0 12 -4 -3 -25z m-6326 -32 c-3 -10
-5 -2 -5 17 0 19 2 27 5 18 2 -10 2 -26 0 -35z m6783 -8 c0 -8 -6 -15 -14 -15
-17 0 -28 14 -19 24 12 12 33 6 33 -9z m-50 1 c0 -3 -4 -8 -10 -11 -5 -3 -10
-1 -10 4 0 6 5 11 10 11 6 0 10 -2 10 -4z m-6370 -86 c12 -8 9 -10 -12 -10
-16 0 -28 5 -28 10 0 13 20 13 40 0z m2005 -70 c3 -5 -1 -10 -9 -10 -9 0 -16
5 -16 10 0 6 4 10 9 10 6 0 13 -4 16 -10z m3935 -31 c0 -5 -10 -9 -21 -9 -18
0 -19 2 -9 15 12 15 30 12 30 -6z m-5902 -16 c5 -17 -26 -29 -40 -15 -6 6 -7
15 -3 22 9 14 37 9 43 -7z m852 -83 c0 -5 -2 -10 -4 -10 -3 0 -8 5 -11 10 -3
6 -1 10 4 10 6 0 11 -4 11 -10z m300 -165 c0 -8 -4 -15 -10 -15 -5 0 -10 7
-10 15 0 8 5 15 10 15 6 0 10 -7 10 -15z m160 -15 c0 -11 -7 -20 -15 -20 -15
0 -21 21 -8 33 12 13 23 7 23 -13z m-952 -42 c6 -6 12 -19 12 -29 0 -21 -51
-60 -57 -43 -12 35 -32 47 -78 48 -60 1 -77 26 -18 26 21 0 44 4 51 8 15 10
72 3 90 -10z m902 8 c0 -8 -4 -18 -10 -21 -5 -3 -10 3 -10 14 0 12 5 21 10 21
6 0 10 -6 10 -14z m295 4 c8 -12 -3 -50 -15 -50 -17 0 -53 37 -46 48 9 15 53
16 61 2z m-137 -87 c-16 -15 -18 -15 -24 0 -3 9 -3 25 0 34 6 15 8 15 24 0 15
-16 15 -18 0 -34z m-1841 -19 c8 -24 -42 -36 -153 -35 -64 0 -116 -4 -119 -9
-3 -6 -28 -10 -55 -10 -27 0 -54 -6 -62 -13 -8 -9 -51 -17 -111 -21 -92 -7
-97 -6 -97 12 0 23 18 32 65 32 19 0 46 5 61 10 15 6 57 13 93 15 36 2 131 10
211 18 158 15 162 15 167 1z m9833 -140 c0 -8 -4 -12 -10 -9 -5 3 -10 10 -10
16 0 5 5 9 10 9 6 0 10 -7 10 -16z m-10037 -53 c2 -10 -10 -45 -27 -77 -24
-44 -42 -64 -70 -77 -49 -23 -70 -19 -74 16 -4 34 13 57 42 57 37 0 86 37 93
70 6 33 28 40 36 11z m-295 -60 c4 -22 -26 -61 -47 -61 -19 0 -23 41 -6 66 20
30 49 28 53 -5z m92 -31 c0 -4 -10 -20 -21 -34 -17 -21 -24 -25 -30 -14 -24
37 8 91 38 66 7 -6 13 -14 13 -18z m380 10 c0 -11 -4 -20 -9 -20 -14 0 -23 18
-16 30 10 17 25 11 25 -10z m-388 -112 c-7 -7 -12 -8 -12 -2 0 14 12 26 19 19
2 -3 -1 -11 -7 -17z m28 -228 c14 -11 32 -20 41 -20 9 0 27 -8 39 -18 31 -25
22 -56 -30 -113 l-40 -44 -22 29 c-23 30 -55 108 -65 159 -5 24 -3 27 23 27
16 0 40 -9 54 -20z m5437 -346 c27 -42 46 -108 38 -133 -4 -14 3 -20 32 -29
28 -9 46 -24 66 -56 15 -24 27 -51 27 -61 0 -9 18 -34 40 -56 25 -25 42 -52
46 -76 4 -21 22 -59 40 -85 26 -36 35 -61 40 -110 7 -68 -7 -137 -31 -162 -8
-8 -15 -27 -15 -42 0 -19 -12 -40 -35 -64 -34 -35 -35 -37 -36 -123 0 -48 -5
-90 -11 -93 -12 -8 -72 48 -103 96 -12 19 -48 62 -79 95 -30 33 -56 66 -56 73
0 6 -11 21 -24 33 -13 11 -31 37 -39 57 -49 116 -71 185 -79 252 -10 77 -2
240 11 240 4 0 13 -33 20 -72 7 -40 16 -95 21 -123 5 -27 12 -67 15 -87 3 -21
20 -57 38 -80 18 -24 39 -58 46 -75 7 -18 17 -33 22 -33 11 0 -1 83 -12 90 -8
6 -19 224 -23 447 -1 62 -5 115 -9 119 -4 4 -7 27 -7 51 0 55 25 58 57 7z
m-700 -106 c-2 -13 -4 -3 -4 22 0 25 2 35 4 23 2 -13 2 -33 0 -45z m-4274 -45
c-7 -2 -19 -2 -25 0 -7 3 -2 5 12 5 14 0 19 -2 13 -5z m357 -155 c35 -77 18
-138 -39 -138 -41 0 -53 -13 -45 -46 4 -16 12 -32 18 -36 20 -14 93 -9 106 7
14 17 29 19 50 5 12 -7 11 -13 -10 -34 -13 -15 -27 -26 -32 -26 -5 0 -28 -9
-50 -20 -23 -11 -46 -20 -52 -20 -5 0 -19 -8 -30 -19 -12 -10 -42 -22 -67 -25
-45 -7 -46 -6 -52 22 -3 16 -2 42 2 58 6 24 12 28 34 26 19 -3 29 2 33 15 3
10 12 31 20 46 7 16 14 47 14 69 0 22 10 67 23 99 27 73 50 78 77 17z m8980
19 c0 -17 -44 -59 -53 -50 -12 12 -7 36 11 49 22 17 42 18 42 1z m-7149 -87
c5 0 9 -16 9 -35 0 -34 12 -46 25 -25 3 6 14 10 24 10 15 0 19 -10 23 -52 4
-37 2 -56 -8 -63 -15 -11 -33 -84 -34 -133 0 -18 -10 -46 -22 -63 -17 -23 -23
-46 -25 -97 -1 -37 -9 -94 -19 -127 -9 -33 -19 -75 -21 -93 -3 -18 -9 -35 -14
-38 -5 -3 -9 -21 -9 -40 0 -19 -4 -34 -10 -34 -14 0 -1 648 13 675 5 11 16 26
24 33 7 7 13 34 13 60 0 26 4 58 8 72 6 23 7 21 10 -12 2 -21 7 -38 13 -38z
m7059 10 c0 -16 -33 -80 -42 -80 -12 0 -10 8 9 52 16 35 33 50 33 28z m-6955
-20 c7 -12 -39 -24 -60 -16 -8 3 -15 10 -15 16 0 13 67 13 75 0z m3265 -128
c0 -29 -74 -142 -85 -130 -8 8 13 87 31 116 14 21 54 31 54 14z m3980 -2 c0
-12 -28 -25 -36 -17 -9 9 6 27 22 27 8 0 14 -5 14 -10z m-6066 -79 c7 -11 -3
-41 -14 -41 -11 0 -21 30 -14 41 3 5 9 9 14 9 5 0 11 -4 14 -9z m2242 -84 c24
-21 25 -26 14 -46 l-12 -23 -29 28 c-53 51 -28 88 27 41z m-5596 -24 c0 -16
-25 -73 -32 -73 -11 0 -10 8 4 47 11 29 28 45 28 26z m465 -135 c11 -37 12
-55 3 -73 -6 -14 -14 -25 -17 -25 -9 0 -5 -377 4 -430 4 -25 16 -53 26 -63 11
-10 19 -24 19 -32 0 -9 13 -15 38 -17 29 -2 38 -8 40 -25 3 -22 -3 -28 -83
-79 -36 -24 -47 -26 -140 -25 -131 2 -205 28 -205 72 0 34 8 36 60 9 27 -14
49 -18 67 -14 23 6 24 8 10 19 -15 10 -13 15 12 45 20 25 33 32 49 28 35 -10
38 1 48 184 5 76 2 108 -11 149 -17 49 -17 75 1 165 4 21 -1 46 -14 75 -23 49
-20 64 16 83 40 21 60 9 77 -46z m7675 54 c0 -13 -12 -22 -22 -16 -10 6 -1 24
13 24 5 0 9 -4 9 -8z m-50 -65 c0 -47 -10 -77 -26 -77 -8 0 -14 -4 -14 -10 0
-5 -17 -24 -37 -42 -20 -18 -47 -44 -59 -56 -28 -29 -49 -21 -33 11 7 12 27
39 45 60 19 20 34 44 34 53 0 14 13 34 61 92 16 19 29 5 29 -31z m-8023 -7
c-30 -23 -47 -26 -47 -6 0 16 15 24 49 25 l24 1 -26 -20z m-63 -25 c3 -8 -2
-22 -11 -30 -14 -15 -17 -15 -31 -1 -13 12 -13 18 -2 30 16 20 36 20 44 1z
m1316 -37 c0 -7 12 -25 28 -42 27 -29 26 -29 -15 4 -23 18 -40 37 -37 41 8 13
24 11 24 -3z m4590 -8 c0 -5 -2 -10 -4 -10 -3 0 -8 5 -11 10 -3 6 -1 10 4 10
6 0 11 -4 11 -10z m310 -55 c0 -19 4 -36 9 -39 17 -11 0 -44 -20 -39 -16 4
-19 15 -19 57 0 29 3 56 6 59 13 13 24 -5 24 -38z m120 13 c0 -19 -2 -20 -10
-8 -13 19 -13 30 0 30 6 0 10 -10 10 -22z m0 -91 c0 -12 10 -41 22 -64 l23
-43 -24 -45 c-13 -25 -29 -45 -36 -45 -7 0 -20 -18 -30 -40 -10 -22 -22 -40
-27 -40 -4 0 -8 -51 -8 -114 0 -112 -10 -166 -29 -166 -22 0 -32 46 -35 172
-4 115 -1 140 16 188 11 30 23 67 25 83 3 15 18 36 34 48 16 11 33 37 40 59
12 41 29 45 29 7z m-6000 3 c0 -17 -7 -20 -40 -20 -27 0 -40 4 -40 13 0 21 11
27 47 27 26 0 33 -4 33 -20z m5310 -10 c43 -22 54 -56 25 -80 -22 -18 -42 -6
-59 35 -8 19 -20 35 -25 35 -6 0 -11 7 -11 15 0 21 23 19 70 -5z m480 -56 c0
-8 -4 -12 -10 -9 -5 3 -10 13 -10 21 0 8 5 12 10 9 6 -3 10 -13 10 -21z m2343
-136 c-1 -18 -9 -47 -17 -63 -9 -17 -16 -36 -16 -42 0 -29 -18 -10 -23 25 -5
25 -14 40 -29 47 -26 12 -36 35 -14 35 9 0 26 11 37 24 16 19 26 23 43 16 16
-6 21 -15 19 -42z m1053 -35 c23 -31 17 -72 -11 -83 -15 -6 -25 -17 -25 -30 0
-11 -7 -37 -16 -58 -9 -20 -17 -59 -18 -87 -1 -42 -4 -50 -22 -53 -16 -2 -20
-8 -16 -27 6 -31 -36 -165 -54 -172 -10 -3 -14 -22 -14 -58 0 -46 -3 -55 -21
-60 -27 -9 -36 1 -21 25 7 11 12 42 12 69 0 28 6 55 13 63 7 7 20 42 27 76 9
41 21 67 33 73 14 8 16 17 11 45 -4 20 -2 40 5 48 7 8 14 38 17 67 6 54 26
125 45 160 12 24 38 24 55 2z m-3972 -46 c44 -31 59 -77 51 -163 -6 -63 -10
-74 -26 -74 -15 0 -19 7 -19 35 0 19 -4 35 -10 35 -5 0 -10 -4 -10 -9 0 -5
-12 -16 -26 -26 -25 -16 -28 -16 -81 12 -33 17 -61 40 -70 57 -19 36 -13 101
12 140 18 27 20 28 84 21 41 -4 77 -15 95 -28z m-3600 -6 c6 -10 -22 -37 -29
-29 -8 7 5 38 15 38 5 0 11 -4 14 -9z m4364 -43 c3 -49 -12 -93 -29 -83 -5 4
-9 35 -9 71 0 57 2 65 18 62 13 -2 18 -15 20 -50z m-6302 16 c12 -18 14 -28 6
-36 -23 -23 -61 14 -48 47 8 22 23 18 42 -11z m3512 -26 c-7 -20 -58 -23 -58
-4 0 11 10 16 31 16 20 0 29 -4 27 -12z m4004 -13 c26 -4 55 -13 65 -20 15
-12 16 -17 5 -35 -11 -19 -10 -21 18 -27 17 -3 35 -13 40 -23 5 -9 9 -80 9
-158 0 -139 1 -143 28 -180 15 -20 48 -56 73 -79 38 -35 43 -44 34 -60 -17
-28 -92 -67 -107 -55 -24 20 -74 22 -132 7 -72 -18 -84 -28 -67 -55 10 -17 9
-23 -7 -37 -17 -14 -19 -25 -14 -82 4 -49 11 -70 25 -82 11 -8 19 -22 17 -30
-2 -14 9 -99 17 -130 2 -8 -9 -29 -26 -45 -16 -16 -30 -39 -30 -52 0 -42 -18
-62 -55 -62 -41 0 -62 -28 -45 -60 12 -22 31 -25 60 -10 13 7 21 6 30 -5 7 -9
11 -18 8 -21 -11 -10 -124 -24 -155 -18 l-31 6 5 54 c5 50 4 54 -16 54 -27 0
-28 35 -4 98 14 37 14 45 3 52 -16 10 -16 110 0 140 11 21 30 214 23 241 -8
27 -80 33 -173 13 -91 -20 -102 -34 -82 -102 12 -39 28 -447 24 -594 l-2 -86
35 -12 c28 -9 39 -9 50 0 8 7 26 9 39 6 14 -3 28 -2 31 4 8 13 62 13 70 0 3
-6 -2 -13 -12 -16 -10 -3 -36 -14 -58 -24 -29 -14 -52 -17 -86 -13 -39 4 -50
2 -69 -17 -35 -35 -46 -20 -54 77 -15 180 -27 338 -26 353 0 8 5 83 10 165 13
198 14 231 5 288 -5 33 -4 56 5 72 7 13 10 32 8 43 -8 31 7 49 26 33 9 -8 16
-19 16 -25 0 -13 68 -37 76 -25 2 4 25 11 49 15 25 3 43 10 40 14 -3 5 -1 11
4 15 6 3 24 26 41 52 24 35 30 52 25 74 -4 16 -11 31 -16 34 -5 4 -9 31 -9 62
l0 56 -47 -9 c-27 -4 -72 -7 -102 -6 -30 1 -60 -3 -67 -8 -6 -6 -15 -44 -19
-85 -4 -49 -10 -73 -17 -69 -7 5 -9 41 -5 105 9 138 37 171 167 198 79 16 122
4 132 -37 5 -18 13 -32 18 -32 17 0 32 42 26 71 -4 21 0 35 14 49 29 29 73 50
95 46 11 -3 41 -8 67 -11z m-5603 -152 c2 -97 16 -163 42 -208 10 -16 30 -73
45 -125 15 -52 31 -102 35 -110 43 -77 52 -225 19 -290 -16 -32 -26 -40 -48
-40 -15 0 -38 -7 -50 -16 -16 -11 -34 -14 -56 -10 -32 6 -34 5 -40 -29 -4 -19
-2 -43 4 -54 11 -22 14 -74 3 -84 -3 -4 -12 -2 -19 4 -11 9 -21 4 -44 -21 -17
-18 -29 -39 -26 -45 2 -7 -7 -37 -21 -66 -23 -49 -26 -52 -35 -33 -7 16 -6 31
6 55 10 21 15 57 14 95 -2 50 3 71 25 114 17 32 27 68 27 94 0 23 5 47 10 52
6 6 12 85 14 190 1 98 6 187 11 197 5 12 2 31 -9 53 -21 46 -20 89 4 143 11
24 20 63 20 87 0 24 4 44 9 44 8 0 19 23 35 73 13 39 22 12 25 -70z m3619 -28
c97 -2 104 -3 132 -30 21 -20 30 -41 35 -79 4 -28 12 -57 18 -64 6 -7 14 -39
18 -69 5 -36 14 -60 24 -66 12 -7 16 -21 14 -59 -3 -49 -2 -51 35 -70 35 -18
37 -22 34 -59 -3 -40 -3 -41 -75 -69 -72 -27 -72 -27 -86 -7 -10 16 -23 20
-62 19 -28 -1 -74 -1 -103 -2 -71 -1 -85 -23 -93 -145 -7 -100 -23 -155 -40
-138 -6 6 -13 67 -15 140 -2 70 -9 153 -15 183 -11 57 -28 175 -28 199 -1 8
-8 11 -21 8 -19 -5 -20 -2 -14 31 3 21 14 44 24 52 28 24 32 82 9 125 -23 43
-19 62 16 75 14 5 28 17 32 26 4 11 13 14 32 9 14 -4 72 -8 129 -10z m-5838
-121 c9 -8 13 -29 11 -52 -3 -42 16 -62 70 -75 19 -5 28 -15 32 -36 7 -35 25
-41 135 -41 46 0 92 -5 102 -10 22 -12 74 -115 66 -129 -7 -11 37 -23 57 -15
9 3 22 -8 35 -30 12 -20 27 -36 33 -36 6 0 43 11 81 25 38 14 83 25 100 25 18
0 36 7 44 17 11 16 13 16 19 -10 7 -25 10 -27 43 -21 20 4 50 15 67 26 37 22
75 24 75 3 0 -24 29 -30 44 -10 19 27 64 13 71 -23 4 -15 17 -69 31 -121 14
-51 27 -112 31 -136 5 -37 3 -45 -17 -55 -12 -6 -47 -12 -78 -12 -32 0 -68 -5
-82 -10 -14 -6 -95 -9 -180 -8 -189 4 -202 3 -315 -10 -122 -14 -327 -29 -457
-33 -91 -3 -108 -1 -114 12 -9 19 -12 421 -3 426 3 2 5 41 4 87 -1 46 3 95 8
111 6 17 5 32 -1 40 -5 6 -10 40 -11 73 l-1 62 43 -10 c23 -5 49 -16 57 -24z
m4433 -30 c8 -9 -22 -53 -44 -65 -13 -7 -33 -6 -61 2 -24 6 -58 11 -76 11 -19
0 -30 4 -25 8 9 10 43 17 116 27 26 3 47 10 47 14 0 10 34 12 43 3z m-275 -46
c3 -13 -3 -18 -22 -18 -27 0 -41 14 -31 31 10 16 49 6 53 -13z m-458 -81 c0
-12 -4 -28 -9 -36 -12 -19 -25 21 -16 49 8 25 25 16 25 -13z m1910 -140 c0
-18 -5 -39 -10 -47 -7 -11 -10 0 -10 38 0 33 4 51 10 47 6 -3 10 -21 10 -38z
m2400 -60 c26 0 50 -28 44 -52 -4 -16 4 -31 33 -58 20 -20 40 -37 44 -37 10 0
22 -50 24 -103 2 -42 7 -53 43 -87 24 -24 43 -52 46 -72 24 -125 31 -148 43
-144 8 3 13 -2 13 -12 0 -9 9 -34 20 -55 11 -20 20 -43 20 -49 0 -7 14 -33 31
-58 l30 -45 -31 -9 c-21 -6 -38 -5 -53 3 -13 7 -41 11 -63 9 -33 -3 -42 1 -61
26 -15 19 -23 44 -23 68 0 40 -18 52 -27 18 -3 -11 -9 -20 -14 -20 -5 0 -8 -5
-7 -12 4 -18 -31 -22 -50 -5 -9 9 -29 19 -45 22 -41 11 -49 35 -42 123 7 77
-8 345 -26 475 -10 75 -6 92 20 81 9 -3 23 -6 31 -7z m-3485 -17 c-3 -5 -15
-10 -26 -10 -10 0 -19 5 -19 10 0 6 12 10 26 10 14 0 23 -4 19 -10z m4972
-177 c-3 -10 -5 -4 -5 12 0 17 2 24 5 18 2 -7 2 -21 0 -30z m-4597 -143 c14
-26 5 -40 -24 -40 -23 0 -42 33 -30 52 10 15 43 8 54 -12z m769 -233 l-13
-132 -8 75 c-9 80 -3 156 13 165 5 4 7 11 4 16 -4 5 -3 14 1 21 15 25 16 -15
3 -145z m-5766 -171 c7 -19 -18 -40 -38 -32 -15 6 -20 28 -8 39 12 12 41 7 46
-7z m8232 -10 l50 -12 -53 -8 c-29 -5 -56 -14 -59 -21 -8 -24 -63 -37 -100
-24 -18 6 -33 13 -33 15 0 3 10 18 22 34 19 27 27 30 72 29 28 0 74 -6 101
-13z m-364 -16 c29 -16 23 -27 -17 -35 -46 -8 -69 9 -40 31 24 17 31 17 57 4z"/>
<path d="M2394 9526 c-3 -14 -3 -30 1 -35 7 -12 35 -15 36 -3 0 4 3 19 5 35 4
22 1 27 -15 27 -13 0 -23 -9 -27 -24z"/>
<path d="M1999 9366 c-6 -7 -176 -15 -311 -16 -107 0 -118 -2 -128 -20 -14
-27 4 -63 28 -56 9 3 100 8 202 11 282 7 323 12 359 45 17 15 31 30 31 33 0 8
-174 10 -181 3z"/>
<path d="M1567 9223 c-4 -3 -7 -13 -7 -21 0 -7 -16 -32 -35 -55 -20 -23 -38
-53 -42 -67 -3 -14 -11 -31 -17 -39 -9 -11 -3 -12 34 -5 25 5 61 8 80 7 29 -1
38 4 48 25 25 53 6 141 -33 156 -20 7 -20 7 -28 -1z"/>
<path d="M2740 9020 c0 -11 5 -20 10 -20 6 0 10 9 10 20 0 11 -4 20 -10 20 -5
0 -10 -9 -10 -20z"/>
<path d="M4180 10180 c20 -13 33 -13 25 0 -3 6 -14 10 -23 10 -15 0 -15 -2 -2
-10z"/>
<path d="M602 8300 c0 -14 2 -19 5 -12 2 6 2 18 0 25 -3 6 -5 1 -5 -13z"/>
<path d="M1755 7150 c3 -5 13 -10 21 -10 8 0 14 5 14 10 0 6 -9 10 -21 10 -11
0 -17 -4 -14 -10z"/>
<path d="M2322 6914 c-15 -10 -32 -13 -51 -9 -17 3 -32 2 -36 -4 -4 -7 4 -11
19 -11 19 0 26 -5 26 -20 0 -17 7 -20 39 -20 34 0 40 4 45 27 10 38 -12 58
-42 37z"/>
<path d="M8345 3860 c-22 -4 -32 -8 -22 -9 19 -1 23 -16 7 -26 -5 -3 -10 -26
-10 -51 0 -36 -3 -44 -18 -44 -26 0 -42 -20 -42 -51 0 -14 -9 -38 -21 -53 -11
-14 -18 -30 -15 -35 8 -13 165 -4 193 10 25 14 48 61 40 86 -3 10 -15 42 -26
72 -15 40 -18 59 -10 73 19 36 4 42 -76 28z"/>
<path d="M6298 3463 c7 -3 16 -2 19 1 4 3 -2 6 -13 5 -11 0 -14 -3 -6 -6z"/>
<path d="M8565 3199 c-10 -15 4 -119 16 -119 12 0 12 117 0 125 -5 3 -13 0
-16 -6z"/>
<path d="M10650 10561 c0 -5 -10 -13 -21 -16 -35 -12 -109 -85 -109 -109 0
-12 17 -39 38 -60 33 -32 49 -39 108 -48 80 -13 190 -11 217 4 18 9 17 12 -13
43 -18 19 -45 35 -59 37 -20 2 -26 9 -26 28 0 20 -6 26 -27 28 -14 2 -29 10
-32 17 -6 16 -2 20 37 29 20 5 27 12 27 31 0 24 -2 25 -70 25 -38 0 -70 -4
-70 -9z"/>
<path d="M12296 10561 c-3 -4 3 -16 14 -26 16 -15 22 -15 35 -5 25 21 18 40
-14 40 -17 0 -32 -4 -35 -9z"/>
<path d="M12440 10561 c0 -13 10 -18 44 -22 22 -3 30 0 32 14 2 14 -5 17 -37
17 -21 0 -39 -4 -39 -9z"/>
<path d="M12610 10555 c0 -10 10 -15 29 -15 16 0 31 6 35 15 4 12 -3 15 -29
15 -24 0 -35 -5 -35 -15z"/>
<path d="M10442 10528 c-13 -36 -12 -41 12 -32 10 4 16 17 16 35 0 38 -13 37
-28 -3z"/>
<path d="M11097 10543 c-10 -9 -9 -23 2 -23 5 0 11 7 15 15 5 15 -5 20 -17 8z"/>
<path d="M11381 10512 c-35 -34 -46 -39 -91 -40 -72 -1 -97 -20 -105 -79 -4
-27 -9 -56 -12 -65 -3 -14 2 -18 24 -18 16 0 56 -7 88 -16 163 -44 235 -59
235 -48 0 5 3 39 5 76 4 61 2 72 -24 115 -16 27 -32 59 -36 73 -7 24 -22 40
-37 40 -5 0 -26 -17 -47 -38z"/>
<path d="M11672 10528 c-7 -7 -12 -21 -12 -31 0 -11 -5 -37 -12 -58 -10 -34
-14 -38 -35 -33 -23 6 -23 5 -17 -37 4 -27 18 -57 35 -77 16 -18 32 -50 35
-71 4 -24 17 -50 34 -66 32 -31 50 -27 43 8 -4 20 1 26 28 36 30 10 35 9 56
-13 13 -14 23 -28 23 -31 0 -10 43 -44 55 -45 19 0 75 -83 75 -109 0 -59 61
-213 90 -228 12 -6 29 -25 38 -42 24 -51 32 -36 25 49 -4 51 -2 84 5 92 8 10
2 32 -23 83 -19 39 -34 77 -35 85 0 9 -20 47 -45 85 -25 39 -45 80 -45 91 0
12 -10 28 -23 37 -12 8 -36 34 -52 58 -16 24 -40 54 -53 67 -13 12 -21 26 -18
31 7 11 -59 83 -93 100 -18 10 -25 10 -31 1 -5 -8 -9 -5 -13 9 -6 24 -17 27
-35 9z m113 -178 c11 -16 29 -31 40 -32 16 -2 20 -10 18 -36 -2 -53 -43 -83
-43 -32 0 26 -27 50 -56 50 -19 0 -24 5 -24 24 0 62 32 75 65 26z"/>
<path d="M12383 10523 c-3 -10 -15 -25 -26 -34 -15 -13 -21 -29 -21 -67 -1
-58 7 -71 35 -54 11 7 24 10 29 7 16 -10 24 -97 11 -117 -23 -37 7 -50 39 -18
29 29 27 83 -4 107 -22 17 -24 27 -25 97 0 43 -3 82 -6 87 -10 15 -25 10 -32
-8z"/>
<path d="M10397 10476 c-6 -15 1 -26 15 -26 4 0 8 9 8 20 0 23 -15 27 -23 6z"/>
<path d="M12524 10482 c-16 -11 -24 -52 -14 -71 5 -9 12 -29 15 -46 l7 -30 19
38 c33 64 15 138 -27 109z"/>
<path d="M12707 10435 c-8 -18 11 -31 25 -17 11 11 3 32 -12 32 -4 0 -10 -7
-13 -15z"/>
<path d="M10967 10388 c-41 -44 -40 -58 3 -58 16 0 32 -4 35 -10 3 -5 -3 -10
-15 -10 -13 0 -20 -5 -18 -12 6 -18 29 -21 62 -8 22 8 26 14 21 33 -4 12 -18
32 -33 44 l-25 21 34 4 c23 2 35 9 37 21 3 13 -3 17 -30 16 -25 -1 -42 -11
-71 -41z"/>
<path d="M327 10403 c-4 -3 -7 -19 -7 -35 0 -23 4 -28 25 -28 28 0 30 6 15 44
-9 26 -21 32 -33 19z"/>
<path d="M8020 10380 c0 -5 12 -10 28 -10 21 0 24 2 12 10 -20 13 -40 13 -40
0z"/>
<path d="M12260 10360 c-11 -11 -20 -26 -20 -34 0 -7 -9 -25 -20 -39 -23 -29
-26 -72 -6 -93 21 -20 30 -18 67 16 29 28 32 36 30 83 -3 89 -14 104 -51 67z"/>
<path d="M10476 10355 c-3 -9 0 -15 9 -15 8 0 15 7 15 15 0 8 -4 15 -9 15 -5
0 -11 -7 -15 -15z"/>
<path d="M8098 10343 c6 -2 18 -2 25 0 6 3 1 5 -13 5 -14 0 -19 -2 -12 -5z"/>
<path d="M5308 10313 c6 -2 18 -2 25 0 6 3 1 5 -13 5 -14 0 -19 -2 -12 -5z"/>
<path d="M12579 10266 c-17 -36 1 -54 26 -26 17 19 17 22 2 37 -15 15 -17 14
-28 -11z"/>
<path d="M8280 10271 c0 -12 79 -41 85 -31 3 4 -1 12 -8 17 -16 14 -77 24 -77
14z"/>
<path d="M12177 10175 c-28 -20 -49 -83 -42 -126 7 -40 27 -65 45 -54 17 11
12 -67 -7 -87 -13 -14 -14 -21 -5 -30 7 -7 12 -31 12 -55 0 -24 5 -43 10 -43
6 0 10 4 10 10 0 5 8 17 19 27 13 13 20 39 25 94 6 73 6 78 -18 95 -23 18 -24
21 -14 81 8 49 8 65 -4 81 -11 17 -16 18 -31 7z"/>
<path d="M0 10070 c0 -89 2 -101 16 -96 9 3 22 6 30 6 8 0 14 8 14 18 1 23 24
52 43 52 8 0 18 8 21 17 7 18 -7 30 -59 49 -19 7 -30 18 -30 30 0 10 -8 20
-17 22 -16 3 -18 -7 -18 -98z"/>
<path d="M12313 10138 c-12 -14 -20 -38 -20 -60 -1 -36 0 -36 26 -27 42 16 60
46 47 80 -13 35 -26 36 -53 7z"/>
<path d="M12470 10111 c-8 -15 -8 -27 0 -42 16 -29 35 -18 35 21 0 39 -19 50
-35 21z"/>
<path d="M12354 9955 c-3 -8 -4 -20 -1 -27 2 -7 -3 -25 -11 -40 -15 -26 -15
-29 1 -45 36 -37 71 31 53 104 -7 26 -33 31 -42 8z"/>
<path d="M80 9940 c0 -5 5 -10 10 -10 6 0 10 5 10 10 0 6 -4 10 -10 10 -5 0
-10 -4 -10 -10z"/>
<path d="M12252 9798 c-17 -17 -15 -103 3 -118 13 -11 19 -9 36 11 28 32 24
113 -6 117 -11 1 -26 -3 -33 -10z"/>
<path d="M12591 9716 c-12 -14 -5 -26 16 -26 15 0 18 26 4 34 -5 3 -14 0 -20
-8z"/>
<path d="M12155 9621 c-8 -26 34 -111 52 -104 15 6 17 26 4 51 -5 9 -14 29
-22 45 -15 32 -25 34 -34 8z"/>
<path d="M11560 9610 c0 -5 5 -10 11 -10 5 0 7 5 4 10 -3 6 -8 10 -11 10 -2 0
-4 -4 -4 -10z"/>
<path d="M12290 9550 c0 -37 2 -40 29 -40 32 0 44 19 35 56 -5 18 -13 24 -35
24 -27 0 -29 -3 -29 -40z"/>
<path d="M11386 9555 c-15 -23 -15 -27 5 -67 12 -23 28 -48 35 -56 8 -7 14
-22 14 -33 0 -11 7 -22 16 -26 12 -4 14 -14 9 -39 -5 -30 -3 -35 20 -44 14 -5
25 -16 25 -23 0 -8 9 -22 20 -32 11 -10 23 -36 27 -58 7 -44 62 -112 91 -112
11 0 17 -8 17 -25 0 -18 6 -26 23 -28 23 -3 30 12 11 23 -7 5 -6 11 4 18 14
13 41 132 33 146 -3 4 -1 36 5 70 5 35 7 71 4 81 -9 29 -38 34 -57 11 -23 -29
-30 -26 -26 11 3 31 2 32 -40 35 -37 2 -45 0 -49 -17 -3 -11 -12 -20 -19 -20
-16 0 -19 26 -4 35 17 10 11 61 -10 88 -11 14 -20 29 -20 34 0 5 -10 19 -23
31 -33 32 -90 30 -111 -3z"/>
<path d="M7758 9418 c-16 -5 -28 -13 -29 -16 0 -4 -2 -26 -4 -48 -2 -23 -12
-61 -22 -85 -21 -47 -20 -121 1 -137 6 -5 27 -11 47 -14 27 -3 40 1 48 14 14
22 14 65 1 73 -6 4 0 20 15 39 31 41 33 82 4 89 -17 5 -20 10 -14 29 19 61 6
76 -47 56z"/>
<path d="M7860 9349 c0 -5 5 -7 10 -4 6 3 10 8 10 11 0 2 -4 4 -10 4 -5 0 -10
-5 -10 -11z"/>
<path d="M4553 9334 c-4 -10 1 -22 12 -30 23 -17 35 -9 35 22 0 17 -5 24 -20
24 -11 0 -23 -7 -27 -16z"/>
<path d="M8201 9336 c-6 -7 -34 -16 -61 -20 -40 -5 -50 -10 -50 -26 0 -28 15
-32 55 -16 43 18 92 11 106 -16 15 -28 30 -12 18 19 -7 18 -6 30 1 37 5 5 10
16 10 23 0 18 -64 17 -79 -1z"/>
<path d="M8370 9240 c0 -5 14 -10 30 -10 17 0 30 5 30 10 0 6 -13 10 -30 10
-16 0 -30 -4 -30 -10z"/>
<path d="M12250 9230 c0 -11 6 -20 13 -20 19 0 27 10 20 26 -8 21 -33 17 -33
-6z"/>
<path d="M11855 9203 c-41 -6 -100 -52 -86 -66 16 -16 14 -57 -3 -57 -27 0
-28 -21 -4 -55 26 -39 30 -41 48 -20 10 12 10 19 2 27 -15 15 -16 48 -2 48 6
0 10 -5 10 -11 0 -14 51 -59 67 -59 6 0 15 5 19 11 3 6 17 8 31 4 23 -5 25 -4
19 17 -3 13 -6 26 -6 31 0 4 -15 7 -34 7 -27 0 -39 7 -55 28 l-20 29 27 20
c15 10 34 22 43 25 38 14 131 -39 145 -84 8 -26 23 -22 30 8 9 34 -14 56 -89
83 -56 20 -80 23 -142 14z"/>
<path d="M6672 9163 c-8 -14 -9 -24 -2 -28 12 -7 24 18 18 37 -3 8 -9 5 -16
-9z"/>
<path d="M4217 9164 c-3 -3 -34 -8 -69 -11 -35 -3 -67 -9 -72 -13 -15 -15 35
-32 78 -26 121 16 126 18 126 37 0 14 -7 19 -28 19 -16 0 -31 -3 -35 -6z"/>
<path d="M6420 9140 c0 -5 5 -10 10 -10 6 0 10 5 10 10 0 6 -4 10 -10 10 -5 0
-10 -4 -10 -10z"/>
<path d="M7855 9120 c3 -5 10 -10 16 -10 5 0 9 5 9 10 0 6 -7 10 -16 10 -8 0
-12 -4 -9 -10z"/>
<path d="M7738 9090 c-54 -10 -64 -22 -60 -74 4 -41 7 -46 28 -46 30 0 31 -14
3 -34 -11 -8 -28 -24 -36 -36 -13 -18 -13 -23 -1 -38 10 -11 14 -37 13 -77 -2
-68 18 -160 40 -185 8 -9 15 -21 15 -26 0 -6 14 -23 30 -39 17 -16 29 -34 29
-39 -4 -32 3 -46 20 -46 11 0 23 5 26 10 3 6 23 10 44 10 43 0 61 14 61 47 0
13 11 34 25 47 31 29 31 36 -1 59 -19 14 -35 17 -60 13 -42 -8 -44 6 -9 54 14
19 25 42 25 52 0 10 9 27 20 38 11 11 20 27 20 35 0 26 -27 28 -50 5 -20 -20
-24 -21 -37 -7 -17 17 -10 37 12 37 22 0 33 30 31 82 -2 56 -17 78 -41 58 -12
-10 -21 -10 -40 -2 -28 13 -34 49 -10 58 28 11 19 19 -55 50 -3 1 -22 -2 -42
-6z"/>
<path d="M9251 9067 c-20 -24 -2 -48 33 -45 26 2 31 7 31 28 0 19 -6 26 -26
28 -14 2 -31 -3 -38 -11z"/>
<path d="M3884 9038 c-11 -17 10 -25 34 -13 l23 12 -26 5 c-14 3 -28 1 -31 -4z"/>
<path d="M8108 9025 c-16 -13 -28 -27 -28 -30 0 -3 28 -5 63 -3 59 3 62 4 62
28 0 21 -5 25 -35 27 -25 2 -43 -4 -62 -22z"/>
<path d="M12250 9029 c0 -24 23 -21 28 4 2 10 -3 17 -12 17 -10 0 -16 -9 -16
-21z"/>
<path d="M12495 9041 c-3 -5 -1 -12 5 -16 5 -3 10 1 10 9 0 18 -6 21 -15 7z"/>
<path d="M11977 8903 c6 -15 4 -16 -9 -5 -9 7 -19 9 -22 4 -8 -13 4 -22 30
-22 17 0 21 4 17 20 -3 11 -9 20 -14 20 -5 0 -5 -8 -2 -17z"/>
<path d="M8765 8830 c-9 -15 5 -52 18 -47 15 5 16 49 0 54 -6 2 -14 -1 -18 -7z"/>
<path d="M11914 8705 c-8 -21 6 -41 17 -24 12 19 11 39 -1 39 -6 0 -13 -7 -16
-15z"/>
<path d="M8120 8640 c0 -5 5 -10 10 -10 6 0 10 5 10 10 0 6 -4 10 -10 10 -5 0
-10 -4 -10 -10z"/>
<path d="M8625 8489 c-9 -38 3 -161 15 -154 22 14 22 185 0 185 -5 0 -11 -14
-15 -31z"/>
<path d="M12013 8389 c4 -19 10 -61 15 -94 10 -61 29 -115 42 -115 4 0 10 15
12 32 4 23 -1 41 -16 61 -13 18 -23 50 -26 84 -3 35 -10 58 -19 61 -10 3 -12
-3 -8 -29z"/>
<path d="M7480 8337 c0 -46 11 -61 63 -87 20 -10 27 -21 27 -42 0 -24 4 -28
30 -28 28 0 30 3 30 35 0 30 -6 38 -40 60 -22 14 -40 29 -40 34 0 4 -11 13
-25 19 -15 7 -25 20 -25 32 0 11 -4 20 -10 20 -5 0 -10 -20 -10 -43z"/>
<path d="M8088 8350 c-4 -24 -2 -27 9 -19 15 13 18 49 4 49 -5 0 -11 -13 -13
-30z"/>
<path d="M8187 8244 c-9 -9 11 -44 24 -44 16 0 59 36 52 44 -8 8 -68 8 -76 0z"/>
<path d="M8130 8184 c0 -8 5 -12 10 -9 6 3 10 10 10 16 0 5 -4 9 -10 9 -5 0
-10 -7 -10 -16z"/>
<path d="M12261 8128 c-1 -16 4 -28 9 -28 12 0 12 8 0 35 -8 18 -9 17 -9 -7z"/>
<path d="M11422 8035 c-11 -14 -23 -47 -27 -74 -6 -43 -2 -58 28 -124 19 -41
39 -77 46 -81 6 -4 11 -20 11 -37 0 -16 5 -29 11 -29 5 0 7 -4 4 -10 -3 -5
-17 -10 -30 -10 -26 0 -51 -33 -39 -51 7 -12 47 -8 154 16 41 10 89 17 105 17
75 -4 90 -1 124 20 58 38 80 48 99 48 18 0 52 29 52 44 0 4 -12 18 -27 31
l-28 24 36 1 c30 0 44 8 78 45 44 48 52 82 24 107 -29 25 -52 29 -193 40 -155
12 -240 12 -254 -2 -6 -6 -19 -10 -29 -10 -20 0 -100 40 -105 53 -6 13 -20 7
-40 -18z"/>
<path d="M12620 7920 c0 -5 5 -10 10 -10 6 0 10 5 10 10 0 6 -4 10 -10 10 -5
0 -10 -4 -10 -10z"/>
<path d="M12180 7828 c0 -23 28 -92 38 -96 20 -6 24 38 5 70 -20 34 -43 48
-43 26z"/>
<path d="M12096 7781 c-4 -7 -5 -15 -2 -18 9 -9 19 4 14 18 -4 11 -6 11 -12 0z"/>
<path d="M12653 7774 c-8 -21 13 -42 28 -27 13 13 5 43 -11 43 -6 0 -13 -7
-17 -16z"/>
<path d="M6867 7732 c-21 -23 -21 -32 -2 -32 8 0 15 -8 15 -19 0 -20 36 -71
50 -71 20 0 21 42 1 74 -12 18 -21 41 -21 50 0 21 -23 20 -43 -2z"/>
<path d="M7610 7660 c0 -5 5 -10 10 -10 6 0 10 5 10 10 0 6 -4 10 -10 10 -5 0
-10 -4 -10 -10z"/>
<path d="M11764 7505 c-16 -24 -15 -28 11 -81 22 -45 28 -72 29 -130 1 -52 5
-75 15 -79 17 -7 111 5 111 14 0 4 -7 17 -16 30 -9 12 -19 46 -23 74 -6 52 -6
52 -43 55 -25 2 -38 8 -38 17 0 9 6 12 15 9 15 -6 19 4 16 37 -1 9 8 19 20 22
27 7 16 27 -15 27 -13 0 -29 7 -36 15 -17 21 -27 19 -46 -10z"/>
<path d="M11963 7519 c-28 -10 -30 -45 -3 -54 27 -9 40 1 40 30 0 30 -9 35
-37 24z"/>
<path d="M12756 7494 c-3 -9 -4 -19 -1 -24 3 -4 -9 -22 -25 -40 -21 -22 -30
-41 -28 -59 3 -24 1 -26 -32 -23 -19 2 -36 8 -38 13 -6 15 -32 10 -32 -6 0 -8
5 -15 10 -15 6 0 10 -13 10 -29 0 -15 5 -42 11 -60 9 -25 15 -30 30 -26 11 4
19 2 19 -5 0 -6 5 -8 10 -5 6 3 10 15 10 26 0 11 7 22 15 25 10 4 13 14 9 30
-7 28 3 30 34 8 12 -8 22 -26 22 -40 0 -20 5 -24 30 -24 30 0 30 1 30 54 0 34
-5 57 -12 60 -10 5 -10 7 0 12 17 8 16 104 -1 104 -8 0 -22 9 -32 20 -22 24
-31 25 -39 4z"/>
<path d="M11900 7460 c0 -5 5 -10 10 -10 6 0 10 5 10 10 0 6 -4 10 -10 10 -5
0 -10 -4 -10 -10z"/>
<path d="M12302 7450 c13 -20 28 -27 28 -12 0 10 -22 32 -32 32 -5 0 -3 -9 4
-20z"/>
<path d="M12637 7463 c-4 -3 -7 -24 -7 -45 0 -27 4 -38 15 -38 10 0 15 10 15
29 0 16 3 36 6 45 6 16 -16 23 -29 9z"/>
<path d="M11640 7440 c0 -11 -7 -20 -15 -20 -10 0 -15 -10 -15 -29 0 -47 -20
-91 -41 -91 -16 0 -19 7 -19 44 0 28 -7 52 -19 67 -18 23 -20 23 -52 8 -38
-18 -68 -76 -45 -85 7 -3 12 -24 12 -54 0 -59 6 -67 39 -52 21 10 26 9 36 -9
8 -17 7 -23 -8 -35 -17 -14 -17 -15 1 -29 12 -9 41 -15 68 -15 47 0 50 2 64
35 8 21 25 40 40 45 35 14 36 13 29 -10 -5 -17 -2 -20 25 -20 40 0 46 19 21
69 -12 22 -21 54 -21 70 0 40 -19 79 -42 86 -10 4 -23 15 -28 26 -14 25 -30
24 -30 -1z m-1 -237 c1 -7 -8 -13 -19 -13 -11 0 -20 5 -20 10 0 6 5 10 10 10
6 0 10 10 11 23 0 21 1 21 9 2 5 -11 9 -26 9 -32z"/>
<path d="M11206 7428 c-14 -20 -14 -23 -1 -31 21 -11 35 0 35 29 0 30 -14 31
-34 2z"/>
<path d="M12450 7441 c0 -12 29 -23 41 -15 18 10 9 24 -16 24 -14 0 -25 -4
-25 -9z"/>
<path d="M11990 7351 c11 -22 51 -53 58 -46 3 2 -1 18 -8 35 -9 22 -19 30 -37
30 -20 0 -22 -3 -13 -19z"/>
<path d="M7267 7343 c-2 -5 -1 -19 4 -33 8 -28 10 -27 13 13 2 25 -8 36 -17
20z"/>
<path d="M10979 7295 c-20 -34 -23 -35 -72 -33 -47 3 -52 1 -65 -25 -7 -15
-22 -33 -33 -40 -10 -6 -19 -19 -19 -28 0 -9 -7 -22 -15 -29 -8 -7 -15 -21
-15 -31 0 -22 -11 -24 -28 -7 -8 8 -14 5 -22 -13 -5 -13 -14 -31 -19 -39 -23
-39 -33 -70 -28 -84 8 -21 36 -20 44 2 3 9 13 25 22 35 14 17 16 17 31 -2 15
-20 15 -20 60 2 35 18 50 34 70 74 14 29 35 62 46 75 12 13 31 42 43 65 11 23
25 44 31 48 13 8 13 52 0 60 -5 3 -19 -10 -31 -30z"/>
<path d="M12494 7290 c-11 -4 -26 -22 -33 -38 -11 -27 -10 -34 6 -56 10 -15
28 -26 42 -26 13 0 34 -11 47 -25 25 -27 32 -29 52 -17 19 13 3 42 -23 42 -21
0 -23 4 -22 49 1 70 -19 91 -69 71z"/>
<path d="M12338 7265 c-14 -30 3 -55 38 -55 27 0 29 8 13 44 -17 36 -38 40
-51 11z"/>
<path d="M11022 7154 c-12 -8 -22 -21 -22 -27 0 -7 -9 -23 -20 -37 -26 -33
-26 -70 -1 -70 13 0 21 9 26 30 4 17 18 38 31 46 16 11 24 26 24 45 0 33 -6
35 -38 13z"/>
<path d="M11670 7140 c0 -5 5 -10 10 -10 6 0 10 5 10 10 0 6 -4 10 -10 10 -5
0 -10 -4 -10 -10z"/>
<path d="M12686 7090 c-9 -17 -22 -27 -28 -24 -7 5 -9 -2 -4 -22 12 -50 24
-55 109 -48 72 7 77 8 77 30 0 18 -6 24 -22 24 -28 0 -39 8 -61 43 -23 35 -48
34 -71 -3z"/>
<path d="M10436 7035 c-11 -8 -30 -15 -41 -15 -26 0 -67 -41 -47 -47 20 -7 15
-43 -7 -43 -16 0 -20 -10 -26 -62 -10 -88 -33 -159 -61 -185 -30 -28 -30 -37
1 -51 14 -6 25 -16 25 -21 0 -11 56 -41 77 -41 17 0 88 45 100 62 4 7 10 49
13 93 5 64 11 87 30 113 18 24 23 43 21 71 -2 29 4 45 23 68 34 41 33 59 -5
67 -49 10 -82 7 -103 -9z m9 -66 c9 -42 -10 -61 -26 -26 -12 27 -7 57 10 57 5
0 12 -14 16 -31z m-27 -213 c6 -29 -15 -43 -35 -24 -14 14 -14 20 -3 33 16 19
34 15 38 -9z"/>
<path d="M10905 6998 c-2 -7 -3 -22 -2 -33 1 -15 -8 -23 -40 -33 -30 -10 -44
-21 -53 -43 -7 -16 -18 -29 -25 -29 -7 0 -18 -13 -24 -30 -5 -16 -15 -30 -20
-30 -6 0 -11 -12 -11 -26 0 -24 2 -26 32 -20 18 3 42 15 53 26 38 36 97 60
147 60 53 0 73 21 62 65 -7 27 -20 33 -27 13 -8 -25 -47 23 -47 59 0 27 -4 33
-20 33 -11 0 -23 -6 -25 -12z"/>
<path d="M11463 6848 c-16 -20 -53 -100 -53 -116 0 -26 69 -99 100 -106 24 -4
30 -11 30 -31 0 -22 -4 -25 -35 -25 -19 0 -58 9 -87 20 -83 31 -91 29 -82 -27
6 -44 36 -93 55 -93 16 0 119 -51 119 -59 0 -16 -22 -71 -28 -71 -4 0 -17 -3
-29 -6 -18 -5 -23 -2 -23 14 0 36 -11 52 -36 52 -20 0 -24 -5 -24 -33 0 -18
-8 -44 -17 -57 -19 -27 -34 -130 -26 -174 6 -27 7 -28 20 -10 16 21 93 47 144
46 30 0 37 5 46 28 16 41 57 66 88 52 46 -21 30 -121 -30 -186 -25 -27 -26
-46 -8 -151 2 -16 7 -59 9 -95 6 -84 12 -110 24 -110 6 0 9 27 8 68 -2 52 0
67 11 67 8 0 19 -13 24 -30 5 -16 20 -41 32 -55 13 -14 26 -35 29 -47 10 -33
35 -37 46 -7 6 14 12 112 15 217 3 106 7 258 10 339 3 112 1 149 -9 157 -14
12 -57 9 -89 -4 -27 -11 -39 7 -45 64 -5 51 -6 53 -73 74 -12 4 -18 21 -22 54
-2 26 -8 59 -12 73 -6 19 9 8 60 -42 37 -38 70 -68 73 -68 3 0 15 9 26 19 29
27 124 73 136 66 5 -3 7 -18 4 -33 -4 -21 1 -35 21 -57 25 -26 29 -27 40 -12
17 24 72 22 85 -3 11 -20 59 -50 81 -50 8 0 10 12 6 35 -4 27 -2 35 9 35 18 0
83 -41 108 -68 10 -12 23 -19 27 -16 15 9 10 51 -6 58 -8 3 -15 12 -15 20 0 8
-11 26 -25 40 -29 29 -33 56 -7 56 23 0 42 -19 42 -41 0 -16 25 -40 100 -97
21 -17 30 -32 30 -52 0 -24 5 -30 30 -35 17 -4 36 -2 43 3 7 5 36 16 66 23 29
7 59 21 65 31 6 10 21 18 33 18 13 0 42 19 68 43 37 36 45 50 45 80 0 37 0 37
41 37 37 0 109 31 109 47 0 3 -34 2 -75 -2 -41 -3 -80 -3 -87 1 -17 11 -97 5
-119 -9 -15 -9 -24 -9 -39 1 -11 6 -51 12 -89 12 -57 0 -71 3 -75 18 -4 9 -34
35 -68 56 l-62 40 -160 1 c-89 1 -171 5 -184 9 -12 4 -38 2 -57 -4 -26 -9 -54
-9 -103 -1 -126 19 -248 24 -259 9z m721 -84 c19 -19 20 -30 4 -37 -23 -8
-208 2 -228 13 -10 5 -29 10 -41 10 -15 0 -20 3 -13 10 5 5 52 11 104 13 52 1
109 4 127 5 18 1 38 -5 47 -14z m-181 -106 c15 -7 27 -18 27 -24 0 -7 7 -14
15 -18 8 -3 15 -12 15 -21 0 -22 -18 -19 -25 5 -3 11 -12 20 -18 20 -7 0 -23
12 -36 25 -26 28 -19 31 22 13z m337 -33 c5 -14 23 -33 39 -43 48 -29 70 -63
59 -91 -6 -19 -11 -22 -20 -13 -7 7 -22 12 -35 12 -17 0 -23 6 -23 23 0 28
-23 94 -38 109 -15 15 -15 28 -2 28 6 0 15 -11 20 -25z m138 1 c2 -10 18 -32
36 -48 30 -29 31 -29 6 -26 -13 2 -29 12 -35 24 -5 11 -18 28 -28 38 -22 22
-22 38 0 34 10 -2 19 -12 21 -22z m-984 -421 c-4 -8 -13 -15 -22 -15 -13 0
-12 3 4 15 24 18 25 18 18 0z"/>
<path d="M12400 6831 c0 -11 -8 -22 -17 -25 -10 -3 8 -4 40 -1 65 4 103 24 70
36 -10 4 -35 8 -55 8 -31 1 -38 -3 -38 -18z"/>
<path d="M12655 6810 c3 -5 10 -10 16 -10 5 0 9 5 9 10 0 6 -7 10 -16 10 -8 0
-12 -4 -9 -10z"/>
<path d="M10010 6800 c0 -5 7 -10 15 -10 8 0 15 5 15 10 0 6 -7 10 -15 10 -8
0 -15 -4 -15 -10z"/>
<path d="M10587 6572 c-23 -25 -21 -32 8 -32 20 0 25 5 25 25 0 30 -11 32 -33
7z"/>
<path d="M10260 6560 c0 -5 5 -10 10 -10 6 0 10 5 10 10 0 6 -4 10 -10 10 -5
0 -10 -4 -10 -10z"/>
<path d="M12730 6491 c-80 -40 -164 -71 -193 -71 -10 0 -28 -7 -40 -15 -48
-31 -336 -49 -392 -23 -39 18 -30 29 22 26 37 -2 48 0 51 13 4 20 -45 36 -61
20 -6 -6 -35 -11 -65 -11 -47 0 -54 -2 -49 -17 13 -48 13 -48 -31 -51 -37 -3
-44 0 -49 17 -7 29 -31 34 -45 8 -11 -21 -13 -46 -19 -237 -4 -122 -3 -123
131 -138 61 -7 115 -10 120 -7 6 3 26 2 45 -4 32 -9 37 -7 53 17 12 18 17 49
19 100 0 40 4 76 7 79 3 3 -2 19 -10 35 -14 27 -14 31 2 49 10 11 27 19 38 17
17 -2 21 -11 23 -48 4 -99 16 -180 27 -189 7 -6 82 -13 167 -17 85 -4 164 -10
176 -15 12 -4 31 -26 42 -48 l21 -39 -30 -32 c-25 -27 -35 -31 -63 -27 -27 5
-38 0 -70 -28 -50 -43 -49 -78 2 -79 18 -1 36 5 38 11 8 20 37 15 51 -8 12
-19 10 -25 -17 -53 -37 -38 -44 -103 -13 -122 26 -16 45 1 62 56 7 25 36 71
63 103 49 58 50 59 43 113 -7 64 8 136 35 160 18 16 19 34 19 256 0 276 9 259
-110 199z"/>
<path d="M10550 6506 c0 -9 -11 -21 -24 -25 -23 -9 -36 -29 -36 -57 0 -11 8
-14 27 -12 25 3 29 8 35 53 4 27 5 51 2 54 -2 2 -4 -3 -4 -13z"/>
<path d="M11890 6503 c0 -5 13 -15 29 -25 26 -14 30 -14 35 -1 11 27 6 33 -29
33 -19 0 -35 -3 -35 -7z"/>
<path d="M12217 6446 c-37 -16 -24 -26 34 -26 42 0 70 13 57 26 -12 11 -66 12
-91 0z"/>
<path d="M11051 6128 c0 -28 2 -30 9 -13 12 28 12 45 0 45 -5 0 -10 -15 -9
-32z"/>
<path d="M4920 6110 c0 -11 5 -20 10 -20 6 0 10 9 10 20 0 11 -4 20 -10 20 -5
0 -10 -9 -10 -20z"/>
<path d="M12468 5833 c6 -2 18 -2 25 0 6 3 1 5 -13 5 -14 0 -19 -2 -12 -5z"/>
<path d="M11630 5686 c0 -8 5 -18 10 -21 6 -3 10 3 10 14 0 12 -4 21 -10 21
-5 0 -10 -6 -10 -14z"/>
<path d="M11672 5523 c-5 -44 -14 -282 -21 -558 -8 -295 -8 -301 -34 -358 -35
-75 -56 -181 -57 -287 -2 -128 -2 -124 15 -110 12 10 16 10 19 -1 36 -103 105
-282 107 -274 4 23 10 95 13 155 8 161 18 416 21 530 4 136 32 416 45 439 12
22 32 -70 37 -169 3 -47 8 -89 13 -95 26 -33 18 -116 -13 -136 -16 -11 -22
-146 -7 -164 20 -24 34 -18 71 33 24 34 35 61 39 97 4 39 9 51 24 53 11 3 50
30 87 62 37 32 102 75 146 95 43 20 85 40 93 45 19 9 26 139 10 193 -9 30 -16
37 -36 37 -14 0 -40 -11 -57 -24 -18 -13 -50 -29 -72 -35 -22 -6 -58 -24 -80
-41 -22 -16 -65 -46 -95 -66 -30 -21 -58 -42 -62 -48 -17 -26 -20 12 -8 113
16 135 8 180 -54 301 -25 47 -60 118 -80 158 -33 69 -59 91 -64 55z"/>
<path d="M300 5181 c0 -11 5 -23 10 -26 6 -4 10 5 10 19 0 14 -4 26 -10 26 -5
0 -10 -9 -10 -19z"/>
<path d="M470 5111 c-22 -41 -4 -121 28 -121 22 0 30 68 12 114 -11 31 -25 33
-40 7z"/>
<path d="M12377 5123 c-3 -4 -8 -22 -11 -39 -6 -24 -3 -33 10 -38 24 -9 40 8
39 46 0 22 -5 34 -17 36 -9 2 -18 -1 -21 -5z"/>
<path d="M10739 4945 c-24 -40 -30 -42 -70 -18 -28 17 -30 17 -51 -4 -16 -16
-22 -37 -25 -80 -6 -103 -24 -267 -34 -303 -8 -34 -25 -227 -36 -424 -3 -54
-11 -99 -20 -112 -8 -13 -17 -56 -20 -96 l-6 -74 46 -56 c63 -78 77 -109 84
-189 5 -59 3 -69 -11 -75 -10 -4 -22 -2 -29 5 -6 6 -19 11 -28 11 -10 0 -34
16 -54 35 -21 19 -45 37 -55 40 -10 3 -24 12 -30 20 -18 22 -28 19 -45 -15
-22 -42 -19 -89 7 -117 17 -19 20 -28 12 -41 -6 -9 -10 -46 -8 -82 1 -36 5
-156 8 -267 4 -137 10 -209 18 -223 10 -16 10 -24 1 -39 -10 -16 -9 -30 2 -68
8 -26 11 -51 7 -55 -4 -4 -32 -8 -62 -10 -52 -3 -55 -5 -58 -30 -3 -25 0 -28
27 -28 17 0 31 -4 31 -10 0 -5 -8 -10 -18 -10 -22 0 -42 -19 -42 -40 0 -24 36
-54 55 -46 36 14 72 -33 46 -60 -6 -5 -6 -40 1 -91 l11 -83 47 0 48 0 6 123
c10 193 10 198 34 216 21 15 21 18 7 39 -9 12 -24 22 -33 22 -9 0 -25 7 -35
14 -17 13 -17 16 -2 53 15 33 16 67 10 263 -3 124 -11 246 -17 272 -10 42 -9
50 7 68 10 11 24 20 31 20 18 0 73 -66 80 -97 11 -44 -2 -565 -15 -572 -8 -5
-8 -44 -1 -137 5 -71 11 -163 13 -204 l3 -75 41 -3 40 -3 8 130 c4 71 6 363 5
648 -2 526 8 1432 16 1444 2 4 7 29 10 56 4 26 12 55 18 63 21 26 36 70 36
103 0 18 7 57 15 87 17 64 20 140 5 140 -6 0 -20 -16 -31 -35z"/>
<path d="M8898 4093 c-21 -2 -38 -7 -38 -11 0 -12 123 -62 153 -62 30 0 36 24
17 61 -11 19 -36 22 -132 12z"/>
<path d="M11553 3991 c7 -87 27 -105 27 -24 0 44 -4 64 -17 74 -15 13 -16 9
-10 -50z"/>
<path d="M6827 4016 c-36 -27 0 -86 52 -86 38 0 35 31 -7 81 -19 22 -21 23
-45 5z"/>
<path d="M12226 3973 c3 -21 13 -45 20 -53 12 -13 17 -12 36 7 19 19 20 25 8
52 -10 25 -18 31 -42 31 -28 0 -29 -1 -22 -37z"/>
<path d="M8925 3911 l-40 -6 -3 -59 c-4 -76 21 -145 70 -193 36 -35 39 -36 51
-19 13 18 14 18 33 -2 10 -11 28 -22 39 -24 19 -3 20 2 18 97 -3 139 -11 183
-32 195 -26 14 -89 19 -136 11z"/>
<path d="M11590 3868 c0 -19 18 -43 25 -36 9 9 -4 48 -16 48 -5 0 -9 -6 -9
-12z"/>
<path d="M11793 3853 c-16 -6 -17 -37 -3 -64 7 -12 21 -19 40 -19 25 0 30 4
30 23 0 25 -47 67 -67 60z"/>
<path d="M4380 3820 c0 -19 3 -21 12 -12 9 9 9 15 0 24 -9 9 -12 7 -12 -12z"/>
<path d="M6900 3781 c0 -11 5 -23 10 -26 6 -4 10 5 10 19 0 14 -4 26 -10 26
-5 0 -10 -9 -10 -19z"/>
<path d="M11627 3743 c-19 -22 -47 -92 -44 -113 8 -69 -30 -799 -43 -836 -7
-16 -20 -23 -58 -28 -28 -3 -56 -13 -63 -22 -11 -13 -8 -19 16 -40 30 -26 45
-30 45 -14 0 22 27 8 43 -23 16 -30 18 -50 11 -195 l-7 -162 97 0 96 0 1 93
c0 50 5 144 10 207 5 63 9 126 9 140 0 14 1 79 1 145 1 66 3 154 5 195 17 350
17 347 -5 392 -12 24 -27 68 -35 98 -13 50 -54 171 -60 178 -2 1 -10 -6 -19
-15z"/>
<path d="M9081 3516 c-8 -9 -26 -13 -51 -12 -52 4 -61 -20 -27 -66 20 -26 26
-50 31 -118 11 -141 23 -212 50 -285 14 -38 25 -84 26 -102 0 -29 21 -53 46
-53 9 0 -3 398 -16 520 -7 68 -15 100 -28 113 -16 16 -20 16 -31 3z"/>
<path d="M5555 3510 c3 -5 10 -10 16 -10 5 0 9 5 9 10 0 6 -7 10 -16 10 -8 0
-12 -4 -9 -10z"/>
<path d="M11044 3494 c-4 -15 -4 -70 -1 -123 6 -91 8 -97 37 -124 25 -22 34
-25 50 -17 24 13 26 29 5 44 -22 16 -45 110 -45 184 0 55 -2 62 -20 62 -13 0
-22 -9 -26 -26z"/>
<path d="M12389 3395 c-4 -5 -7 -68 -8 -140 -1 -71 -4 -182 -7 -245 -6 -99 -4
-117 10 -129 16 -13 21 -12 62 12 19 11 20 15 8 32 -10 14 -14 54 -14 151 0
122 -1 132 -20 137 -17 4 -20 15 -22 98 -2 52 -6 90 -9 84z"/>
<path d="M4580 3318 c0 -7 5 -20 10 -28 8 -12 10 -9 10 13 0 15 -4 27 -10 27
-5 0 -10 -6 -10 -12z"/>
<path d="M10810 3251 c-5 -11 -8 -32 -5 -48 3 -15 7 -43 9 -61 2 -18 26 -62
54 -100 27 -37 52 -81 55 -99 4 -18 19 -52 34 -75 28 -44 56 -99 51 -103 -2
-1 -13 -8 -26 -14 -19 -10 -23 -19 -20 -54 3 -39 5 -42 33 -42 l30 0 11 -130
c7 -71 12 -149 13 -172 l1 -43 101 0 101 0 -6 33 c-3 17 -12 86 -19 152 -8 66
-19 130 -25 142 -7 12 -12 35 -12 51 0 16 -7 35 -15 42 -8 7 -15 25 -15 39 0
15 -11 42 -25 61 -14 19 -25 40 -25 48 0 8 -22 52 -50 98 -27 46 -50 90 -50
99 0 8 -4 15 -8 15 -5 0 -35 32 -68 71 -101 122 -105 125 -124 90z"/>
<path d="M12673 2868 c-18 -11 -47 -21 -65 -23 -18 -2 -59 -9 -91 -16 -46 -11
-61 -11 -75 -1 -33 23 -41 23 -71 2 -27 -21 -36 -22 -118 -15 -137 12 -274 9
-284 -6 -5 -8 -38 -16 -83 -20 -41 -3 -81 -11 -89 -18 -11 -9 -17 -48 -22
-146 -6 -100 -11 -135 -21 -139 -15 -6 -18 -54 -8 -130 6 -40 10 -47 28 -44
20 3 21 11 26 113 3 61 11 120 18 132 9 17 9 28 0 47 -10 24 -8 29 28 60 25
22 57 39 88 46 27 6 54 14 60 19 19 14 112 21 124 9 7 -7 42 -11 83 -10 83 1
144 -23 159 -63 5 -14 7 -96 3 -190 l-6 -165 241 0 242 0 0 290 0 290 -67 -1
c-49 0 -77 -6 -100 -21z m67 -173 c0 -41 2 -45 25 -45 18 0 28 -7 36 -26 11
-31 12 -31 -43 -58 -29 -14 -44 -29 -46 -44 -2 -13 -12 -28 -23 -35 -10 -6
-19 -21 -19 -32 0 -41 -45 -60 -70 -30 -14 17 -50 20 -50 5 0 -5 -4 -10 -10
-10 -5 0 -10 13 -10 29 0 17 5 33 10 36 17 10 12 75 -5 75 -8 0 -15 -9 -15
-20 0 -28 -19 -25 -30 5 -10 26 -3 119 12 148 6 12 21 17 47 17 21 0 52 7 67
15 16 8 50 15 77 15 l47 0 0 -45z"/>
<path d="M10842 2703 c3 -44 5 -48 28 -48 22 0 25 5 28 39 4 41 -8 56 -41 56
-15 0 -18 -7 -15 -47z"/>
<path d="M10087 2734 c-13 -13 -7 -49 12 -73 l19 -25 -2 49 c-1 45 -13 65 -29
49z"/>
<path d="M10152 2718 c-24 -24 -12 -61 24 -72 19 -6 21 -3 20 39 -1 47 -18 59
-44 33z"/>
<path d="M10226 2723 c-3 -4 -6 -37 -6 -75 0 -61 2 -68 20 -68 18 0 20 7 20
69 0 50 -4 70 -14 74 -8 3 -17 3 -20 0z"/>
<path d="M10120 2591 c0 -11 5 -23 10 -26 6 -4 10 5 10 19 0 14 -4 26 -10 26
-5 0 -10 -9 -10 -19z"/>
<path d="M5766 2564 c-11 -29 -6 -65 13 -85 18 -20 18 -20 24 2 12 47 -22 123
-37 83z"/>
<path d="M5793 2355 c0 -27 2 -38 4 -22 2 15 2 37 0 50 -2 12 -4 0 -4 -28z"/>
</g>
</svg>
